G04 #@! TF.FileFunction,Copper,L1,Top,Signal*
%FSLAX46Y46*%
G04 Gerber Fmt 4.6, Leading zero omitted, Abs format (unit mm)*
G04 Created by KiCad (PCBNEW 4.0.2-stable) date 09.08.2016 00:29:19*
%MOMM*%
G01*
G04 APERTURE LIST*
%ADD10C,0.300000*%
%ADD11R,2.032000X1.727200*%
%ADD12O,2.032000X1.727200*%
%ADD13R,0.400000X1.350000*%
%ADD14O,1.250000X0.950000*%
%ADD15O,1.000000X1.550000*%
%ADD16R,2.180000X1.600000*%
%ADD17R,0.250000X1.000000*%
%ADD18R,1.000000X0.250000*%
%ADD19R,0.650000X1.060000*%
%ADD20R,1.800000X2.000000*%
%ADD21R,0.800000X0.750000*%
%ADD22R,0.750000X0.800000*%
%ADD23R,1.727200X2.032000*%
%ADD24O,1.727200X2.032000*%
%ADD25C,1.000000*%
%ADD26R,0.797560X0.797560*%
%ADD27C,0.600000*%
%ADD28C,0.500000*%
%ADD29C,0.254000*%
G04 APERTURE END LIST*
D10*
D11*
X109220000Y-121920000D03*
D12*
X109220000Y-119380000D03*
X109220000Y-116840000D03*
X109220000Y-114300000D03*
X109220000Y-111760000D03*
X109220000Y-109220000D03*
X109220000Y-106680000D03*
X109220000Y-104140000D03*
X109220000Y-101600000D03*
X109220000Y-99060000D03*
X109220000Y-96520000D03*
X109220000Y-93980000D03*
D11*
X124460000Y-93980000D03*
D12*
X124460000Y-96520000D03*
X124460000Y-99060000D03*
X124460000Y-101600000D03*
X124460000Y-104140000D03*
X124460000Y-106680000D03*
X124460000Y-109220000D03*
X124460000Y-111760000D03*
X124460000Y-114300000D03*
X124460000Y-116840000D03*
X124460000Y-119380000D03*
X124460000Y-121920000D03*
D13*
X118300900Y-96762540D03*
X117650900Y-96762540D03*
X117000900Y-96762540D03*
X116350900Y-96762540D03*
X115700900Y-96762540D03*
D14*
X119500900Y-96762540D03*
X114500900Y-96762540D03*
D15*
X120500900Y-94062540D03*
X113500900Y-94062540D03*
D16*
X112297570Y-123297680D03*
X121502430Y-123302320D03*
D17*
X113090000Y-114000000D03*
X113590000Y-114000000D03*
X114090000Y-114000000D03*
X114590000Y-114000000D03*
X115090000Y-114000000D03*
X115590000Y-114000000D03*
X116090000Y-114000000D03*
X116590000Y-114000000D03*
X117090000Y-114000000D03*
X117590000Y-114000000D03*
X118090000Y-114000000D03*
X118590000Y-114000000D03*
X119090000Y-114000000D03*
X119590000Y-114000000D03*
X120090000Y-114000000D03*
X120590000Y-114000000D03*
D18*
X122540000Y-112050000D03*
X122540000Y-111550000D03*
X122540000Y-111050000D03*
X122540000Y-110550000D03*
X122540000Y-110050000D03*
X122540000Y-109550000D03*
X122540000Y-109050000D03*
X122540000Y-108550000D03*
X122540000Y-108050000D03*
X122540000Y-107550000D03*
X122540000Y-107050000D03*
X122540000Y-106550000D03*
X122540000Y-106050000D03*
X122540000Y-105550000D03*
X122540000Y-105050000D03*
X122540000Y-104550000D03*
D17*
X120590000Y-102600000D03*
X120090000Y-102600000D03*
X119590000Y-102600000D03*
X119090000Y-102600000D03*
X118590000Y-102600000D03*
X118090000Y-102600000D03*
X117590000Y-102600000D03*
X117090000Y-102600000D03*
X116590000Y-102600000D03*
X116090000Y-102600000D03*
X115590000Y-102600000D03*
X115090000Y-102600000D03*
X114590000Y-102600000D03*
X114090000Y-102600000D03*
X113590000Y-102600000D03*
X113090000Y-102600000D03*
D18*
X111140000Y-104550000D03*
X111140000Y-105050000D03*
X111140000Y-105550000D03*
X111140000Y-106050000D03*
X111140000Y-106550000D03*
X111140000Y-107050000D03*
X111140000Y-107550000D03*
X111140000Y-108050000D03*
X111140000Y-108550000D03*
X111140000Y-109050000D03*
X111140000Y-109550000D03*
X111140000Y-110050000D03*
X111140000Y-110550000D03*
X111140000Y-111050000D03*
X111140000Y-111550000D03*
X111140000Y-112050000D03*
D19*
X118950000Y-98700000D03*
X118000000Y-98700000D03*
X117050000Y-98700000D03*
X117050000Y-100900000D03*
X118950000Y-100900000D03*
D20*
X112100000Y-116400000D03*
X116500000Y-116400000D03*
D21*
X111650000Y-118900000D03*
X113150000Y-118900000D03*
X116250000Y-118900000D03*
X114750000Y-118900000D03*
X119150000Y-120500000D03*
X120650000Y-120500000D03*
X113250000Y-120500000D03*
X111750000Y-120500000D03*
X118450000Y-117300000D03*
X119950000Y-117300000D03*
D22*
X122000000Y-115750000D03*
X122000000Y-117250000D03*
X121900000Y-99050000D03*
X121900000Y-100550000D03*
D21*
X118450000Y-115700000D03*
X119950000Y-115700000D03*
X108650000Y-124500000D03*
X110150000Y-124500000D03*
D22*
X114100000Y-100550000D03*
X114100000Y-99050000D03*
X112600000Y-99050000D03*
X112600000Y-100550000D03*
X111700000Y-93950000D03*
X111700000Y-95450000D03*
D21*
X119250000Y-118900000D03*
X117750000Y-118900000D03*
X125150000Y-124500000D03*
X123650000Y-124500000D03*
D22*
X109000000Y-126050000D03*
X109000000Y-127550000D03*
D23*
X121920000Y-127000000D03*
D24*
X119380000Y-127000000D03*
X116840000Y-127000000D03*
X114300000Y-127000000D03*
X111760000Y-127000000D03*
D22*
X115600000Y-100650000D03*
X115600000Y-99150000D03*
X120400000Y-99050000D03*
X120400000Y-100550000D03*
D25*
X117300000Y-120500000D03*
X115100000Y-120500000D03*
D26*
X120650700Y-118900000D03*
X122149300Y-118900000D03*
X124600000Y-126101400D03*
X124600000Y-127600000D03*
D27*
X122000000Y-93200000D03*
X118100000Y-98100000D03*
X110450000Y-118150000D03*
X111650000Y-124650000D03*
X123500000Y-127850000D03*
X125150000Y-123450000D03*
X111500000Y-114500000D03*
X114200000Y-116050000D03*
X114750000Y-117850000D03*
X110750000Y-102550000D03*
X110550000Y-100400000D03*
X110600000Y-97900000D03*
X115850000Y-93500000D03*
X122400000Y-96100000D03*
X118000000Y-101200000D03*
X120400000Y-101250000D03*
X110600000Y-95200000D03*
X120000000Y-110050000D03*
X121200000Y-111725009D03*
X117850000Y-112600000D03*
X114800000Y-107650000D03*
X114950000Y-110600000D03*
X118850000Y-116500000D03*
X121250000Y-103950000D03*
X119850000Y-106200000D03*
X113495484Y-111795484D03*
X114400000Y-121900000D03*
X119400000Y-124400000D03*
X115700000Y-124600000D03*
X110700000Y-120500000D03*
X108600000Y-123600000D03*
X115100000Y-112600000D03*
X114200000Y-112300000D03*
X121400000Y-100000000D03*
X118700000Y-99800000D03*
X111700000Y-96700000D03*
X112500000Y-108040028D03*
X110950000Y-112850000D03*
X118850000Y-110700000D03*
X118200000Y-119600000D03*
X115800000Y-100900000D03*
X116900000Y-99200000D03*
X120400000Y-97600000D03*
X113900000Y-123400000D03*
X116000000Y-112900000D03*
X114800000Y-109100000D03*
X120050000Y-108200000D03*
X114100000Y-110300000D03*
X114000000Y-109000000D03*
X113900000Y-108000000D03*
X115100000Y-103900000D03*
X115900000Y-104100000D03*
X116714189Y-103995443D03*
X117800000Y-103750000D03*
X118450000Y-104450000D03*
X119314403Y-104664403D03*
X118350000Y-106000000D03*
X120167333Y-112150999D03*
X113400000Y-112700000D03*
X120747522Y-105206775D03*
X120768251Y-105986502D03*
X121150000Y-107500000D03*
X121300000Y-108500000D03*
X120890709Y-109510679D03*
X120844531Y-110355469D03*
X122100000Y-113800000D03*
X121600000Y-112800000D03*
X114069090Y-104692461D03*
X111350000Y-103950000D03*
X122750000Y-124669990D03*
X115900000Y-111450000D03*
X120600000Y-112800000D03*
X117850000Y-95050000D03*
D10*
X112100000Y-116400000D02*
X113300000Y-116400000D01*
X113300000Y-116400000D02*
X113400000Y-116300000D01*
X113400000Y-116300000D02*
X113400000Y-115600000D01*
X113400000Y-115600000D02*
X113850000Y-115150000D01*
X113850000Y-115150000D02*
X115090000Y-115150000D01*
X115090000Y-115150000D02*
X115090000Y-114000000D01*
X111650000Y-118900000D02*
X111650000Y-116850000D01*
X111650000Y-116850000D02*
X112100000Y-116400000D01*
X122400000Y-96100000D02*
X122400000Y-93367964D01*
X122400000Y-93367964D02*
X122293135Y-93261099D01*
X118000000Y-98700000D02*
X118000000Y-98200000D01*
X118000000Y-98200000D02*
X118100000Y-98100000D01*
X110750000Y-120025736D02*
X110750000Y-118450000D01*
X110750000Y-118450000D02*
X110450000Y-118150000D01*
X110700000Y-120500000D02*
X110700000Y-120075736D01*
X110700000Y-120075736D02*
X110750000Y-120025736D01*
X115700000Y-124600000D02*
X111700000Y-124600000D01*
X111700000Y-124600000D02*
X111650000Y-124650000D01*
X124600000Y-127749300D02*
X123600700Y-127749300D01*
X123600700Y-127749300D02*
X123500000Y-127850000D01*
X121502430Y-123302320D02*
X125002320Y-123302320D01*
X125002320Y-123302320D02*
X125150000Y-123450000D01*
X111950000Y-113217598D02*
X111950000Y-114050000D01*
X111950000Y-114050000D02*
X111500000Y-114500000D01*
X112916704Y-111950000D02*
X112916704Y-112250894D01*
X112916704Y-112250894D02*
X111950000Y-113217598D01*
X113495484Y-111795484D02*
X113071220Y-111795484D01*
X113071220Y-111795484D02*
X112916704Y-111950000D01*
X114750000Y-117850000D02*
X114750000Y-116600000D01*
X114750000Y-116600000D02*
X114200000Y-116050000D01*
X114750000Y-118900000D02*
X114750000Y-117850000D01*
X110750000Y-101200000D02*
X110750000Y-102550000D01*
X110675736Y-101125736D02*
X110750000Y-101200000D01*
X110675736Y-100950000D02*
X110675736Y-101125736D01*
X110550000Y-100400000D02*
X110550000Y-100824264D01*
X110550000Y-100824264D02*
X110675736Y-100950000D01*
X110750000Y-98550000D02*
X110750000Y-100200000D01*
X110750000Y-100200000D02*
X110550000Y-100400000D01*
X110675736Y-98475736D02*
X110750000Y-98550000D01*
X110675736Y-98400000D02*
X110675736Y-98475736D01*
X110600000Y-97900000D02*
X110600000Y-98324264D01*
X110600000Y-98324264D02*
X110675736Y-98400000D01*
X110800000Y-96800000D02*
X110600000Y-97000000D01*
X110600000Y-97000000D02*
X110600000Y-97900000D01*
X110800000Y-95824264D02*
X110800000Y-96800000D01*
X110600000Y-95200000D02*
X110600000Y-95624264D01*
X110600000Y-95624264D02*
X110800000Y-95824264D01*
X113500900Y-93862540D02*
X115487460Y-93862540D01*
X115487460Y-93862540D02*
X115850000Y-93500000D01*
X118000000Y-98500000D02*
X118000000Y-101200000D01*
X120400000Y-100350000D02*
X120400000Y-101250000D01*
X110600000Y-95200000D02*
X110600000Y-94775736D01*
X110600000Y-94775736D02*
X110695735Y-94680001D01*
X110695735Y-94680001D02*
X112683439Y-94680001D01*
X112683439Y-94680001D02*
X113500900Y-93862540D01*
X122540000Y-111550000D02*
X122228836Y-111550000D01*
X122228836Y-111550000D02*
X122203827Y-111575009D01*
X122203827Y-111575009D02*
X121350000Y-111575009D01*
X121350000Y-111575009D02*
X121200000Y-111725009D01*
X117569999Y-99830001D02*
X118117278Y-99282722D01*
X118117278Y-99282722D02*
X118117278Y-98617278D01*
X118117278Y-98617278D02*
X118000000Y-98500000D01*
X115600000Y-98850000D02*
X115617598Y-98850000D01*
X116597599Y-99830001D02*
X117569999Y-99830001D01*
X115617598Y-98850000D02*
X116597599Y-99830001D01*
X114500900Y-96562540D02*
X115700900Y-96562540D01*
X117500000Y-109650000D02*
X117500000Y-112250000D01*
X117500000Y-112250000D02*
X117850000Y-112600000D01*
X115550000Y-107700000D02*
X117500000Y-109650000D01*
X115274264Y-107700000D02*
X115550000Y-107700000D01*
X114800000Y-107650000D02*
X115224264Y-107650000D01*
X115224264Y-107650000D02*
X115274264Y-107700000D01*
X118417598Y-107000000D02*
X119050000Y-107000000D01*
X119050000Y-107000000D02*
X119850000Y-106200000D01*
X117750000Y-106550000D02*
X117967598Y-106550000D01*
X117967598Y-106550000D02*
X118417598Y-107000000D01*
X116700000Y-105500000D02*
X117750000Y-106550000D01*
X113650000Y-105500000D02*
X116700000Y-105500000D01*
X113200000Y-105050000D02*
X113650000Y-105500000D01*
X113200000Y-104500000D02*
X113200000Y-105050000D01*
X113400000Y-104300000D02*
X113200000Y-104500000D01*
X113400000Y-103590000D02*
X113400000Y-104300000D01*
X113590000Y-102600000D02*
X113590000Y-103400000D01*
X113590000Y-103400000D02*
X113400000Y-103590000D01*
X113590000Y-102600000D02*
X113590000Y-103110000D01*
X113590000Y-103110000D02*
X113545001Y-103154999D01*
X113545001Y-103154999D02*
X113545001Y-103604999D01*
X118450000Y-115700000D02*
X118450000Y-116100000D01*
X118450000Y-116100000D02*
X118850000Y-116500000D01*
X118590000Y-114000000D02*
X118590000Y-115560000D01*
X118590000Y-115560000D02*
X118450000Y-115700000D01*
X111140000Y-111550000D02*
X113250000Y-111550000D01*
X113250000Y-111550000D02*
X113495484Y-111795484D01*
X122540000Y-105050000D02*
X121740000Y-105050000D01*
X121740000Y-105050000D02*
X121250000Y-104560000D01*
X121250000Y-104560000D02*
X121250000Y-103900000D01*
X121550000Y-101525000D02*
X120400000Y-100375000D01*
X121250000Y-103900000D02*
X121550000Y-103600000D01*
X121550000Y-103600000D02*
X121550000Y-101525000D01*
X120400000Y-100375000D02*
X120400000Y-100350000D01*
X110900000Y-121400000D02*
X110700000Y-121200000D01*
X110700000Y-121200000D02*
X110700000Y-120500000D01*
X112178726Y-121400000D02*
X110900000Y-121400000D01*
X112600001Y-121600001D02*
X112500000Y-121500000D01*
X112500000Y-121500000D02*
X112278726Y-121500000D01*
X112278726Y-121500000D02*
X112178726Y-121400000D01*
X114400000Y-121900000D02*
X114100001Y-121600001D01*
X114100001Y-121600001D02*
X112600001Y-121600001D01*
X122149300Y-118900000D02*
X122848080Y-118900000D01*
X122848080Y-118900000D02*
X122900000Y-118848080D01*
X122900000Y-118848080D02*
X122900000Y-115975000D01*
X122900000Y-115975000D02*
X122675000Y-115750000D01*
X122675000Y-115750000D02*
X122000000Y-115750000D01*
X114400000Y-121900000D02*
X115700000Y-123200000D01*
X115700000Y-123200000D02*
X115700000Y-124600000D01*
X114750000Y-117850000D02*
X114800000Y-117800000D01*
X121502430Y-123302320D02*
X120497680Y-123302320D01*
X120497680Y-123302320D02*
X119400000Y-124400000D01*
X110700000Y-120500000D02*
X111750000Y-120500000D01*
X108650000Y-124500000D02*
X108650000Y-123650000D01*
X108650000Y-123650000D02*
X108600000Y-123600000D01*
X116250000Y-118900000D02*
X116250000Y-116650000D01*
X116250000Y-116650000D02*
X116500000Y-116400000D01*
X115590000Y-114000000D02*
X115590000Y-115490000D01*
X115590000Y-115490000D02*
X116500000Y-116400000D01*
X114590000Y-114000000D02*
X114590000Y-113110000D01*
X114590000Y-113110000D02*
X115100000Y-112600000D01*
X117300000Y-120500000D02*
X119150000Y-120500000D01*
X114090000Y-114000000D02*
X114090000Y-112410000D01*
X114090000Y-112410000D02*
X114200000Y-112300000D01*
X115100000Y-120500000D02*
X113250000Y-120500000D01*
X121400000Y-100000000D02*
X121400000Y-100050000D01*
X121400000Y-100050000D02*
X121900000Y-100550000D01*
D28*
X118950000Y-100900000D02*
X118950000Y-100050000D01*
X118950000Y-100050000D02*
X118700000Y-99800000D01*
D10*
X111700000Y-96700000D02*
X111350000Y-97050000D01*
X111350000Y-97050000D02*
X111350000Y-101500000D01*
X111350000Y-101500000D02*
X111500000Y-101650000D01*
X111500000Y-101650000D02*
X112450000Y-102600000D01*
X110850000Y-125350000D02*
X115342400Y-125350000D01*
X115342400Y-125350000D02*
X116840000Y-126847600D01*
X116840000Y-126847600D02*
X116840000Y-127000000D01*
X110150000Y-126050000D02*
X110850000Y-125350000D01*
X110150000Y-127175000D02*
X110150000Y-126050000D01*
X109000000Y-127650000D02*
X109675000Y-127650000D01*
X109675000Y-127650000D02*
X110150000Y-127175000D01*
X121900000Y-100350000D02*
X121850000Y-100350000D01*
X112500000Y-107615764D02*
X113400000Y-106715764D01*
X113400000Y-106715764D02*
X113950000Y-106165764D01*
X112300000Y-104515764D02*
X112300000Y-105615764D01*
X112300000Y-105615764D02*
X113400000Y-106715764D01*
X112300000Y-102750000D02*
X112300000Y-104515764D01*
X112450000Y-102600000D02*
X112300000Y-102750000D01*
X113090000Y-102600000D02*
X112450000Y-102600000D01*
X115965764Y-106165764D02*
X118850000Y-109050000D01*
X118850000Y-109050000D02*
X118850000Y-110700000D01*
X113950000Y-106165764D02*
X115965764Y-106165764D01*
X112500000Y-108040028D02*
X112500000Y-107615764D01*
X111140000Y-112050000D02*
X111140000Y-112660000D01*
X111140000Y-112660000D02*
X110950000Y-112850000D01*
X118850000Y-110700000D02*
X119149999Y-110999999D01*
X119149999Y-110999999D02*
X119710001Y-110999999D01*
X119710001Y-110999999D02*
X119805001Y-111094999D01*
X122540000Y-104550000D02*
X122540000Y-104125000D01*
X122540000Y-104125000D02*
X122030010Y-103615010D01*
X121900000Y-101050000D02*
X121900000Y-100350000D01*
X122030010Y-103615010D02*
X122030010Y-101180010D01*
X122030010Y-101180010D02*
X121900000Y-101050000D01*
X117750000Y-118900000D02*
X117750000Y-119150000D01*
X117750000Y-119150000D02*
X118200000Y-119600000D01*
X119090000Y-114840000D02*
X119950000Y-115700000D01*
X119090000Y-114000000D02*
X119090000Y-114840000D01*
X119950000Y-115700000D02*
X119950000Y-117300000D01*
X122000000Y-117250000D02*
X120000000Y-117250000D01*
X120000000Y-117250000D02*
X119950000Y-117300000D01*
X117750000Y-118900000D02*
X117750000Y-118225000D01*
X117750000Y-118225000D02*
X117875000Y-118100000D01*
X117875000Y-118100000D02*
X119825000Y-118100000D01*
X119825000Y-118100000D02*
X119950000Y-117975000D01*
X119950000Y-117975000D02*
X119950000Y-117300000D01*
X122540000Y-111050000D02*
X122050000Y-111050000D01*
X122050000Y-111050000D02*
X122005001Y-111094999D01*
X119805001Y-111094999D02*
X119090000Y-111810000D01*
X122005001Y-111094999D02*
X119805001Y-111094999D01*
X119090000Y-114000000D02*
X119090000Y-111810000D01*
X115600000Y-100350000D02*
X115600000Y-100700000D01*
X115600000Y-100700000D02*
X115800000Y-100900000D01*
X109220000Y-93980000D02*
X111670000Y-93980000D01*
X111670000Y-93980000D02*
X111700000Y-93950000D01*
D28*
X117050000Y-98500000D02*
X117050000Y-99050000D01*
X117050000Y-99050000D02*
X116900000Y-99200000D01*
X120400000Y-98850000D02*
X120400000Y-97600000D01*
X118950000Y-98500000D02*
X120050000Y-98500000D01*
X120050000Y-98500000D02*
X120400000Y-98850000D01*
D10*
X112297570Y-123297680D02*
X111352320Y-123297680D01*
X111352320Y-123297680D02*
X110150000Y-124500000D01*
X110150000Y-124500000D02*
X110150000Y-125000000D01*
X110150000Y-125000000D02*
X109000000Y-126150000D01*
X109220000Y-121920000D02*
X112019890Y-121920000D01*
X112019890Y-121920000D02*
X112297570Y-122197680D01*
X112297570Y-122197680D02*
X112297570Y-123297680D01*
X113900000Y-123400000D02*
X112399890Y-123400000D01*
X112399890Y-123400000D02*
X112297570Y-123297680D01*
X116090000Y-114000000D02*
X116090000Y-112990000D01*
X116090000Y-112990000D02*
X116000000Y-112900000D01*
X120650700Y-118900000D02*
X119250000Y-118900000D01*
X124600000Y-126250700D02*
X124600000Y-125150000D01*
X124600000Y-125150000D02*
X125250000Y-124500000D01*
X114800000Y-109539998D02*
X114800000Y-109100000D01*
X114669999Y-109669999D02*
X114800000Y-109539998D01*
X113450009Y-110050000D02*
X113830010Y-109669999D01*
X113830010Y-109669999D02*
X114669999Y-109669999D01*
X111140000Y-110050000D02*
X113450009Y-110050000D01*
X120500000Y-107100000D02*
X120500000Y-107750000D01*
X120500000Y-107750000D02*
X120050000Y-108200000D01*
X121050000Y-106550000D02*
X120500000Y-107100000D01*
X122540000Y-106550000D02*
X121050000Y-106550000D01*
X111140000Y-110550000D02*
X113850000Y-110550000D01*
X113850000Y-110550000D02*
X114100000Y-110300000D01*
X114000000Y-109000000D02*
X113800000Y-109000000D01*
X113800000Y-109000000D02*
X113230010Y-109569990D01*
X113230010Y-109569990D02*
X111159990Y-109569990D01*
X111159990Y-109569990D02*
X111140000Y-109550000D01*
X112750000Y-109050000D02*
X113800000Y-108000000D01*
X113800000Y-108000000D02*
X113900000Y-108000000D01*
X111140000Y-109050000D02*
X112750000Y-109050000D01*
X115100000Y-103900000D02*
X115590000Y-103410000D01*
X115590000Y-103410000D02*
X115590000Y-102600000D01*
X115900000Y-104100000D02*
X116090000Y-103910000D01*
X116090000Y-103910000D02*
X116090000Y-102600000D01*
X116590000Y-102600000D02*
X116590000Y-103871254D01*
X116590000Y-103871254D02*
X116714189Y-103995443D01*
X119090000Y-102600000D02*
X119090000Y-103319002D01*
X119090000Y-103319002D02*
X118659002Y-103750000D01*
X118659002Y-103750000D02*
X118224264Y-103750000D01*
X118224264Y-103750000D02*
X117800000Y-103750000D01*
X118450000Y-104450000D02*
X118637838Y-104450000D01*
X118637838Y-104450000D02*
X119570010Y-103517828D01*
X119570010Y-102619990D02*
X119590000Y-102600000D01*
X119570010Y-103517828D02*
X119570010Y-102619990D01*
X119314403Y-104664403D02*
X120090000Y-103888806D01*
X120090000Y-103888806D02*
X120090000Y-102600000D01*
X118350000Y-106000000D02*
X118911208Y-106000000D01*
X118911208Y-106000000D02*
X120570010Y-104341198D01*
X120570010Y-104341198D02*
X120570010Y-103179990D01*
X120570010Y-103179990D02*
X120590000Y-103160000D01*
X120590000Y-103160000D02*
X120590000Y-102600000D01*
X119590000Y-114000000D02*
X119590000Y-112728332D01*
X119590000Y-112728332D02*
X120167333Y-112150999D01*
X113090000Y-114000000D02*
X113090000Y-113010000D01*
X113090000Y-113010000D02*
X113400000Y-112700000D01*
X122540000Y-105550000D02*
X121264151Y-105550000D01*
X121264151Y-105550000D02*
X120920926Y-105206775D01*
X120920926Y-105206775D02*
X120747522Y-105206775D01*
X122540000Y-106050000D02*
X120831749Y-106050000D01*
X120831749Y-106050000D02*
X120768251Y-105986502D01*
X122540000Y-107050000D02*
X121600000Y-107050000D01*
X121600000Y-107050000D02*
X121150000Y-107500000D01*
X122540000Y-107550000D02*
X123590000Y-107550000D01*
X123590000Y-107550000D02*
X124460000Y-106680000D01*
X122540000Y-109050000D02*
X124290000Y-109050000D01*
X124290000Y-109050000D02*
X124460000Y-109220000D01*
X122540000Y-109550000D02*
X121820998Y-109550000D01*
X121820998Y-109550000D02*
X121300000Y-109029002D01*
X121300000Y-109029002D02*
X121300000Y-108500000D01*
X122540000Y-110050000D02*
X121430030Y-110050000D01*
X121430030Y-110050000D02*
X120890709Y-109510679D01*
X122540000Y-110550000D02*
X121039062Y-110550000D01*
X121039062Y-110550000D02*
X120844531Y-110355469D01*
X122540000Y-112050000D02*
X122540000Y-113360000D01*
X122540000Y-113360000D02*
X122100000Y-113800000D01*
X120590000Y-114000000D02*
X120590000Y-113810000D01*
X120590000Y-113810000D02*
X121600000Y-112800000D01*
X117650900Y-96762540D02*
X117650900Y-97581542D01*
X117650900Y-97581542D02*
X117407442Y-97825000D01*
X115100000Y-97825000D02*
X114100000Y-98825000D01*
X117407442Y-97825000D02*
X115100000Y-97825000D01*
X114100000Y-98825000D02*
X114100000Y-98850000D01*
X112600000Y-96800000D02*
X112600000Y-96375000D01*
X112600000Y-96375000D02*
X111700000Y-95475000D01*
X111700000Y-95475000D02*
X111700000Y-95450000D01*
X114200000Y-95200000D02*
X112600000Y-96800000D01*
X112600000Y-96800000D02*
X112600000Y-98850000D01*
X116613360Y-95200000D02*
X114200000Y-95200000D01*
X117000900Y-96562540D02*
X117000900Y-95587540D01*
X117000900Y-95587540D02*
X116613360Y-95200000D01*
X114090000Y-103579990D02*
X114090000Y-104690000D01*
X114090000Y-104690000D02*
X114150000Y-104750000D01*
X114090000Y-102600000D02*
X114090000Y-103579990D01*
X111140000Y-104550000D02*
X111140000Y-104160000D01*
X111140000Y-104160000D02*
X111350000Y-103950000D01*
X115090000Y-102600000D02*
X115090000Y-101540000D01*
X115090000Y-101540000D02*
X114100000Y-100550000D01*
X114590000Y-102600000D02*
X114590000Y-101800000D01*
X114590000Y-101800000D02*
X114290000Y-101500000D01*
X114290000Y-101500000D02*
X112850000Y-101500000D01*
X112850000Y-101500000D02*
X112600000Y-101250000D01*
X112600000Y-101250000D02*
X112600000Y-100550000D01*
X112600000Y-100375000D02*
X112600000Y-100350000D01*
X123650000Y-124500000D02*
X122919990Y-124500000D01*
X122919990Y-124500000D02*
X122750000Y-124669990D01*
X114650000Y-111450000D02*
X115900000Y-111450000D01*
X114250000Y-111050000D02*
X114650000Y-111450000D01*
X111140000Y-111050000D02*
X114250000Y-111050000D01*
X120090000Y-114000000D02*
X120090000Y-113310000D01*
X120090000Y-113310000D02*
X120600000Y-112800000D01*
D28*
X118300900Y-95200900D02*
X118000900Y-95200900D01*
X118000900Y-95200900D02*
X117850000Y-95050000D01*
X118300900Y-96562540D02*
X118300900Y-95200900D01*
D29*
G36*
X122276300Y-118773000D02*
X122296300Y-118773000D01*
X122296300Y-119027000D01*
X122276300Y-119027000D01*
X122276300Y-119775030D01*
X122435050Y-119933780D01*
X122674389Y-119933780D01*
X122907778Y-119837107D01*
X123051138Y-119693748D01*
X123086971Y-119873891D01*
X123366738Y-120292592D01*
X123785439Y-120572359D01*
X124175767Y-120650000D01*
X123785439Y-120727641D01*
X123366738Y-121007408D01*
X123086971Y-121426109D01*
X122988730Y-121920000D01*
X123008742Y-122020607D01*
X122952128Y-121963993D01*
X122718739Y-121867320D01*
X121788180Y-121867320D01*
X121629430Y-122026070D01*
X121629430Y-123175320D01*
X123068680Y-123175320D01*
X123227430Y-123016570D01*
X123227430Y-122624103D01*
X123366738Y-122832592D01*
X123785439Y-123112359D01*
X124279330Y-123210600D01*
X124640670Y-123210600D01*
X125134561Y-123112359D01*
X125348000Y-122969744D01*
X125348000Y-123689635D01*
X124750000Y-123689635D01*
X124591763Y-123719409D01*
X124446433Y-123812927D01*
X124400169Y-123880636D01*
X124362073Y-123821433D01*
X124219381Y-123723936D01*
X124050000Y-123689635D01*
X123250000Y-123689635D01*
X123227430Y-123693882D01*
X123227430Y-123588070D01*
X123068680Y-123429320D01*
X121629430Y-123429320D01*
X121629430Y-124578570D01*
X121788180Y-124737320D01*
X122022941Y-124737320D01*
X122022874Y-124813965D01*
X122133320Y-125081265D01*
X122337650Y-125285951D01*
X122604756Y-125396864D01*
X122893975Y-125397116D01*
X123151973Y-125290514D01*
X123250000Y-125310365D01*
X124022258Y-125310365D01*
X123897653Y-125390547D01*
X123800156Y-125533239D01*
X123765855Y-125702620D01*
X123765855Y-126500180D01*
X123795629Y-126658417D01*
X123815350Y-126689064D01*
X123662893Y-126841522D01*
X123566220Y-127074911D01*
X123566220Y-127314250D01*
X123724970Y-127473000D01*
X124473000Y-127473000D01*
X124473000Y-127453000D01*
X124727000Y-127453000D01*
X124727000Y-127473000D01*
X124747000Y-127473000D01*
X124747000Y-127727000D01*
X124727000Y-127727000D01*
X124727000Y-127747000D01*
X124473000Y-127747000D01*
X124473000Y-127727000D01*
X123724970Y-127727000D01*
X123566220Y-127885750D01*
X123566220Y-127948000D01*
X123218965Y-127948000D01*
X123218965Y-125984000D01*
X123189191Y-125825763D01*
X123095673Y-125680433D01*
X122952981Y-125582936D01*
X122783600Y-125548635D01*
X121056400Y-125548635D01*
X120898163Y-125578409D01*
X120752833Y-125671927D01*
X120655336Y-125814619D01*
X120621035Y-125984000D01*
X120621035Y-126570150D01*
X120572359Y-126325439D01*
X120292592Y-125906738D01*
X119873891Y-125626971D01*
X119380000Y-125528730D01*
X118886109Y-125626971D01*
X118467408Y-125906738D01*
X118187641Y-126325439D01*
X118110000Y-126715767D01*
X118032359Y-126325439D01*
X117752592Y-125906738D01*
X117333891Y-125626971D01*
X116840000Y-125528730D01*
X116420563Y-125612161D01*
X115750401Y-124941999D01*
X115563208Y-124816922D01*
X115342400Y-124772999D01*
X115342395Y-124773000D01*
X110985365Y-124773000D01*
X110985365Y-124480637D01*
X110996050Y-124469952D01*
X111038189Y-124498744D01*
X111207570Y-124533045D01*
X113387570Y-124533045D01*
X113545807Y-124503271D01*
X113691137Y-124409753D01*
X113788634Y-124267061D01*
X113817012Y-124126928D01*
X114043975Y-124127126D01*
X114311275Y-124016680D01*
X114515961Y-123812350D01*
X114609090Y-123588070D01*
X119777430Y-123588070D01*
X119777430Y-124228630D01*
X119874103Y-124462019D01*
X120052732Y-124640647D01*
X120286121Y-124737320D01*
X121216680Y-124737320D01*
X121375430Y-124578570D01*
X121375430Y-123429320D01*
X119936180Y-123429320D01*
X119777430Y-123588070D01*
X114609090Y-123588070D01*
X114626874Y-123545244D01*
X114627126Y-123256025D01*
X114516680Y-122988725D01*
X114312350Y-122784039D01*
X114045244Y-122673126D01*
X113822935Y-122672932D01*
X113822935Y-122497680D01*
X113800042Y-122376010D01*
X119777430Y-122376010D01*
X119777430Y-123016570D01*
X119936180Y-123175320D01*
X121375430Y-123175320D01*
X121375430Y-122026070D01*
X121216680Y-121867320D01*
X120286121Y-121867320D01*
X120052732Y-121963993D01*
X119874103Y-122142621D01*
X119777430Y-122376010D01*
X113800042Y-122376010D01*
X113793161Y-122339443D01*
X113699643Y-122194113D01*
X113556951Y-122096616D01*
X113387570Y-122062315D01*
X112847644Y-122062315D01*
X112830648Y-121976872D01*
X112757448Y-121867320D01*
X112705571Y-121789679D01*
X112705568Y-121789677D01*
X112427891Y-121511999D01*
X112368036Y-121472005D01*
X112509698Y-121413327D01*
X112660624Y-121262402D01*
X112680619Y-121276064D01*
X112850000Y-121310365D01*
X113650000Y-121310365D01*
X113808237Y-121280591D01*
X113953567Y-121187073D01*
X114028776Y-121077000D01*
X114366160Y-121077000D01*
X114574211Y-121285414D01*
X114914799Y-121426839D01*
X115283583Y-121427161D01*
X115624417Y-121286331D01*
X115885414Y-121025789D01*
X116026839Y-120685201D01*
X116027161Y-120316417D01*
X115886331Y-119975583D01*
X115625789Y-119714586D01*
X115613530Y-119709496D01*
X115660624Y-119662402D01*
X115680619Y-119676064D01*
X115850000Y-119710365D01*
X116650000Y-119710365D01*
X116808237Y-119680591D01*
X116953567Y-119587073D01*
X116999831Y-119519364D01*
X117037927Y-119578567D01*
X117062281Y-119595207D01*
X116775583Y-119713669D01*
X116514586Y-119974211D01*
X116373161Y-120314799D01*
X116372839Y-120683583D01*
X116513669Y-121024417D01*
X116774211Y-121285414D01*
X117114799Y-121426839D01*
X117483583Y-121427161D01*
X117824417Y-121286331D01*
X118034114Y-121077000D01*
X118372570Y-121077000D01*
X118437927Y-121178567D01*
X118580619Y-121276064D01*
X118750000Y-121310365D01*
X119550000Y-121310365D01*
X119708237Y-121280591D01*
X119738251Y-121261277D01*
X119890302Y-121413327D01*
X120123691Y-121510000D01*
X120364250Y-121510000D01*
X120523000Y-121351250D01*
X120523000Y-120627000D01*
X120777000Y-120627000D01*
X120777000Y-121351250D01*
X120935750Y-121510000D01*
X121176309Y-121510000D01*
X121409698Y-121413327D01*
X121588327Y-121234699D01*
X121685000Y-121001310D01*
X121685000Y-120785750D01*
X121526250Y-120627000D01*
X120777000Y-120627000D01*
X120523000Y-120627000D01*
X120503000Y-120627000D01*
X120503000Y-120373000D01*
X120523000Y-120373000D01*
X120523000Y-120353000D01*
X120777000Y-120353000D01*
X120777000Y-120373000D01*
X121526250Y-120373000D01*
X121685000Y-120214250D01*
X121685000Y-119998690D01*
X121658113Y-119933780D01*
X121863550Y-119933780D01*
X122022300Y-119775030D01*
X122022300Y-119027000D01*
X122002300Y-119027000D01*
X122002300Y-118773000D01*
X122022300Y-118773000D01*
X122022300Y-118753000D01*
X122276300Y-118753000D01*
X122276300Y-118773000D01*
X122276300Y-118773000D01*
G37*
X122276300Y-118773000D02*
X122296300Y-118773000D01*
X122296300Y-119027000D01*
X122276300Y-119027000D01*
X122276300Y-119775030D01*
X122435050Y-119933780D01*
X122674389Y-119933780D01*
X122907778Y-119837107D01*
X123051138Y-119693748D01*
X123086971Y-119873891D01*
X123366738Y-120292592D01*
X123785439Y-120572359D01*
X124175767Y-120650000D01*
X123785439Y-120727641D01*
X123366738Y-121007408D01*
X123086971Y-121426109D01*
X122988730Y-121920000D01*
X123008742Y-122020607D01*
X122952128Y-121963993D01*
X122718739Y-121867320D01*
X121788180Y-121867320D01*
X121629430Y-122026070D01*
X121629430Y-123175320D01*
X123068680Y-123175320D01*
X123227430Y-123016570D01*
X123227430Y-122624103D01*
X123366738Y-122832592D01*
X123785439Y-123112359D01*
X124279330Y-123210600D01*
X124640670Y-123210600D01*
X125134561Y-123112359D01*
X125348000Y-122969744D01*
X125348000Y-123689635D01*
X124750000Y-123689635D01*
X124591763Y-123719409D01*
X124446433Y-123812927D01*
X124400169Y-123880636D01*
X124362073Y-123821433D01*
X124219381Y-123723936D01*
X124050000Y-123689635D01*
X123250000Y-123689635D01*
X123227430Y-123693882D01*
X123227430Y-123588070D01*
X123068680Y-123429320D01*
X121629430Y-123429320D01*
X121629430Y-124578570D01*
X121788180Y-124737320D01*
X122022941Y-124737320D01*
X122022874Y-124813965D01*
X122133320Y-125081265D01*
X122337650Y-125285951D01*
X122604756Y-125396864D01*
X122893975Y-125397116D01*
X123151973Y-125290514D01*
X123250000Y-125310365D01*
X124022258Y-125310365D01*
X123897653Y-125390547D01*
X123800156Y-125533239D01*
X123765855Y-125702620D01*
X123765855Y-126500180D01*
X123795629Y-126658417D01*
X123815350Y-126689064D01*
X123662893Y-126841522D01*
X123566220Y-127074911D01*
X123566220Y-127314250D01*
X123724970Y-127473000D01*
X124473000Y-127473000D01*
X124473000Y-127453000D01*
X124727000Y-127453000D01*
X124727000Y-127473000D01*
X124747000Y-127473000D01*
X124747000Y-127727000D01*
X124727000Y-127727000D01*
X124727000Y-127747000D01*
X124473000Y-127747000D01*
X124473000Y-127727000D01*
X123724970Y-127727000D01*
X123566220Y-127885750D01*
X123566220Y-127948000D01*
X123218965Y-127948000D01*
X123218965Y-125984000D01*
X123189191Y-125825763D01*
X123095673Y-125680433D01*
X122952981Y-125582936D01*
X122783600Y-125548635D01*
X121056400Y-125548635D01*
X120898163Y-125578409D01*
X120752833Y-125671927D01*
X120655336Y-125814619D01*
X120621035Y-125984000D01*
X120621035Y-126570150D01*
X120572359Y-126325439D01*
X120292592Y-125906738D01*
X119873891Y-125626971D01*
X119380000Y-125528730D01*
X118886109Y-125626971D01*
X118467408Y-125906738D01*
X118187641Y-126325439D01*
X118110000Y-126715767D01*
X118032359Y-126325439D01*
X117752592Y-125906738D01*
X117333891Y-125626971D01*
X116840000Y-125528730D01*
X116420563Y-125612161D01*
X115750401Y-124941999D01*
X115563208Y-124816922D01*
X115342400Y-124772999D01*
X115342395Y-124773000D01*
X110985365Y-124773000D01*
X110985365Y-124480637D01*
X110996050Y-124469952D01*
X111038189Y-124498744D01*
X111207570Y-124533045D01*
X113387570Y-124533045D01*
X113545807Y-124503271D01*
X113691137Y-124409753D01*
X113788634Y-124267061D01*
X113817012Y-124126928D01*
X114043975Y-124127126D01*
X114311275Y-124016680D01*
X114515961Y-123812350D01*
X114609090Y-123588070D01*
X119777430Y-123588070D01*
X119777430Y-124228630D01*
X119874103Y-124462019D01*
X120052732Y-124640647D01*
X120286121Y-124737320D01*
X121216680Y-124737320D01*
X121375430Y-124578570D01*
X121375430Y-123429320D01*
X119936180Y-123429320D01*
X119777430Y-123588070D01*
X114609090Y-123588070D01*
X114626874Y-123545244D01*
X114627126Y-123256025D01*
X114516680Y-122988725D01*
X114312350Y-122784039D01*
X114045244Y-122673126D01*
X113822935Y-122672932D01*
X113822935Y-122497680D01*
X113800042Y-122376010D01*
X119777430Y-122376010D01*
X119777430Y-123016570D01*
X119936180Y-123175320D01*
X121375430Y-123175320D01*
X121375430Y-122026070D01*
X121216680Y-121867320D01*
X120286121Y-121867320D01*
X120052732Y-121963993D01*
X119874103Y-122142621D01*
X119777430Y-122376010D01*
X113800042Y-122376010D01*
X113793161Y-122339443D01*
X113699643Y-122194113D01*
X113556951Y-122096616D01*
X113387570Y-122062315D01*
X112847644Y-122062315D01*
X112830648Y-121976872D01*
X112757448Y-121867320D01*
X112705571Y-121789679D01*
X112705568Y-121789677D01*
X112427891Y-121511999D01*
X112368036Y-121472005D01*
X112509698Y-121413327D01*
X112660624Y-121262402D01*
X112680619Y-121276064D01*
X112850000Y-121310365D01*
X113650000Y-121310365D01*
X113808237Y-121280591D01*
X113953567Y-121187073D01*
X114028776Y-121077000D01*
X114366160Y-121077000D01*
X114574211Y-121285414D01*
X114914799Y-121426839D01*
X115283583Y-121427161D01*
X115624417Y-121286331D01*
X115885414Y-121025789D01*
X116026839Y-120685201D01*
X116027161Y-120316417D01*
X115886331Y-119975583D01*
X115625789Y-119714586D01*
X115613530Y-119709496D01*
X115660624Y-119662402D01*
X115680619Y-119676064D01*
X115850000Y-119710365D01*
X116650000Y-119710365D01*
X116808237Y-119680591D01*
X116953567Y-119587073D01*
X116999831Y-119519364D01*
X117037927Y-119578567D01*
X117062281Y-119595207D01*
X116775583Y-119713669D01*
X116514586Y-119974211D01*
X116373161Y-120314799D01*
X116372839Y-120683583D01*
X116513669Y-121024417D01*
X116774211Y-121285414D01*
X117114799Y-121426839D01*
X117483583Y-121427161D01*
X117824417Y-121286331D01*
X118034114Y-121077000D01*
X118372570Y-121077000D01*
X118437927Y-121178567D01*
X118580619Y-121276064D01*
X118750000Y-121310365D01*
X119550000Y-121310365D01*
X119708237Y-121280591D01*
X119738251Y-121261277D01*
X119890302Y-121413327D01*
X120123691Y-121510000D01*
X120364250Y-121510000D01*
X120523000Y-121351250D01*
X120523000Y-120627000D01*
X120777000Y-120627000D01*
X120777000Y-121351250D01*
X120935750Y-121510000D01*
X121176309Y-121510000D01*
X121409698Y-121413327D01*
X121588327Y-121234699D01*
X121685000Y-121001310D01*
X121685000Y-120785750D01*
X121526250Y-120627000D01*
X120777000Y-120627000D01*
X120523000Y-120627000D01*
X120503000Y-120627000D01*
X120503000Y-120373000D01*
X120523000Y-120373000D01*
X120523000Y-120353000D01*
X120777000Y-120353000D01*
X120777000Y-120373000D01*
X121526250Y-120373000D01*
X121685000Y-120214250D01*
X121685000Y-119998690D01*
X121658113Y-119933780D01*
X121863550Y-119933780D01*
X122022300Y-119775030D01*
X122022300Y-119027000D01*
X122002300Y-119027000D01*
X122002300Y-118773000D01*
X122022300Y-118773000D01*
X122022300Y-118753000D01*
X122276300Y-118753000D01*
X122276300Y-118773000D01*
G36*
X114427000Y-126873000D02*
X114447000Y-126873000D01*
X114447000Y-127127000D01*
X114427000Y-127127000D01*
X114427000Y-127147000D01*
X114173000Y-127147000D01*
X114173000Y-127127000D01*
X114153000Y-127127000D01*
X114153000Y-126873000D01*
X114173000Y-126873000D01*
X114173000Y-126853000D01*
X114427000Y-126853000D01*
X114427000Y-126873000D01*
X114427000Y-126873000D01*
G37*
X114427000Y-126873000D02*
X114447000Y-126873000D01*
X114447000Y-127127000D01*
X114427000Y-127127000D01*
X114427000Y-127147000D01*
X114173000Y-127147000D01*
X114173000Y-127127000D01*
X114153000Y-127127000D01*
X114153000Y-126873000D01*
X114173000Y-126873000D01*
X114173000Y-126853000D01*
X114427000Y-126853000D01*
X114427000Y-126873000D01*
G36*
X110772205Y-122497680D02*
X110772205Y-123061794D01*
X110144363Y-123689635D01*
X109750000Y-123689635D01*
X109591763Y-123719409D01*
X109561749Y-123738723D01*
X109409698Y-123586673D01*
X109176309Y-123490000D01*
X108935750Y-123490000D01*
X108777000Y-123648750D01*
X108777000Y-124373000D01*
X108797000Y-124373000D01*
X108797000Y-124627000D01*
X108777000Y-124627000D01*
X108777000Y-124647000D01*
X108523000Y-124647000D01*
X108523000Y-124627000D01*
X108503000Y-124627000D01*
X108503000Y-124373000D01*
X108523000Y-124373000D01*
X108523000Y-123648750D01*
X108364250Y-123490000D01*
X108252000Y-123490000D01*
X108252000Y-123218965D01*
X110236000Y-123218965D01*
X110394237Y-123189191D01*
X110539567Y-123095673D01*
X110637064Y-122952981D01*
X110671365Y-122783600D01*
X110671365Y-122497000D01*
X110772343Y-122497000D01*
X110772205Y-122497680D01*
X110772205Y-122497680D01*
G37*
X110772205Y-122497680D02*
X110772205Y-123061794D01*
X110144363Y-123689635D01*
X109750000Y-123689635D01*
X109591763Y-123719409D01*
X109561749Y-123738723D01*
X109409698Y-123586673D01*
X109176309Y-123490000D01*
X108935750Y-123490000D01*
X108777000Y-123648750D01*
X108777000Y-124373000D01*
X108797000Y-124373000D01*
X108797000Y-124627000D01*
X108777000Y-124627000D01*
X108777000Y-124647000D01*
X108523000Y-124647000D01*
X108523000Y-124627000D01*
X108503000Y-124627000D01*
X108503000Y-124373000D01*
X108523000Y-124373000D01*
X108523000Y-123648750D01*
X108364250Y-123490000D01*
X108252000Y-123490000D01*
X108252000Y-123218965D01*
X110236000Y-123218965D01*
X110394237Y-123189191D01*
X110539567Y-123095673D01*
X110637064Y-122952981D01*
X110671365Y-122783600D01*
X110671365Y-122497000D01*
X110772343Y-122497000D01*
X110772205Y-122497680D01*
G36*
X113788725Y-111683320D02*
X113584039Y-111887650D01*
X113548060Y-111974295D01*
X113545244Y-111973126D01*
X113256025Y-111972874D01*
X112988725Y-112083320D01*
X112784039Y-112287650D01*
X112673126Y-112554756D01*
X112673073Y-112615358D01*
X112556922Y-112789192D01*
X112512999Y-113010000D01*
X112513000Y-113010005D01*
X112513000Y-114000000D01*
X112529635Y-114083629D01*
X112529635Y-114500000D01*
X112559409Y-114658237D01*
X112652927Y-114803567D01*
X112795619Y-114901064D01*
X112965000Y-114935365D01*
X113215000Y-114935365D01*
X113256428Y-114927570D01*
X113178697Y-115005301D01*
X113169381Y-114998936D01*
X113000000Y-114964635D01*
X111200000Y-114964635D01*
X111041763Y-114994409D01*
X110896433Y-115087927D01*
X110798936Y-115230619D01*
X110764635Y-115400000D01*
X110764635Y-117400000D01*
X110794409Y-117558237D01*
X110887927Y-117703567D01*
X111030619Y-117801064D01*
X111073000Y-117809646D01*
X111073000Y-118131483D01*
X110946433Y-118212927D01*
X110848936Y-118355619D01*
X110814635Y-118525000D01*
X110814635Y-119275000D01*
X110844409Y-119433237D01*
X110937927Y-119578567D01*
X110973858Y-119603117D01*
X110811673Y-119765301D01*
X110715000Y-119998690D01*
X110715000Y-120214250D01*
X110873750Y-120373000D01*
X111623000Y-120373000D01*
X111623000Y-120353000D01*
X111877000Y-120353000D01*
X111877000Y-120373000D01*
X111897000Y-120373000D01*
X111897000Y-120627000D01*
X111877000Y-120627000D01*
X111877000Y-120647000D01*
X111623000Y-120647000D01*
X111623000Y-120627000D01*
X110873750Y-120627000D01*
X110715000Y-120785750D01*
X110715000Y-121001310D01*
X110811673Y-121234699D01*
X110919975Y-121343000D01*
X110671365Y-121343000D01*
X110671365Y-121056400D01*
X110641591Y-120898163D01*
X110548073Y-120752833D01*
X110405381Y-120655336D01*
X110236000Y-120621035D01*
X109649850Y-120621035D01*
X109894561Y-120572359D01*
X110313262Y-120292592D01*
X110593029Y-119873891D01*
X110691270Y-119380000D01*
X110593029Y-118886109D01*
X110313262Y-118467408D01*
X109894561Y-118187641D01*
X109504233Y-118110000D01*
X109894561Y-118032359D01*
X110313262Y-117752592D01*
X110593029Y-117333891D01*
X110691270Y-116840000D01*
X110593029Y-116346109D01*
X110313262Y-115927408D01*
X109894561Y-115647641D01*
X109504233Y-115570000D01*
X109894561Y-115492359D01*
X110313262Y-115212592D01*
X110593029Y-114793891D01*
X110691270Y-114300000D01*
X110593029Y-113806109D01*
X110313262Y-113387408D01*
X109894561Y-113107641D01*
X109504233Y-113030000D01*
X109894561Y-112952359D01*
X110223102Y-112732835D01*
X110222874Y-112993975D01*
X110333320Y-113261275D01*
X110537650Y-113465961D01*
X110804756Y-113576874D01*
X111093975Y-113577126D01*
X111361275Y-113466680D01*
X111565961Y-113262350D01*
X111676874Y-112995244D01*
X111676991Y-112861137D01*
X111717001Y-112660000D01*
X111717000Y-112659995D01*
X111717000Y-112595877D01*
X111798237Y-112580591D01*
X111943567Y-112487073D01*
X112041064Y-112344381D01*
X112075365Y-112175000D01*
X112075365Y-112137660D01*
X112178327Y-112034699D01*
X112275000Y-111801310D01*
X112275000Y-111771250D01*
X112180752Y-111677002D01*
X112275000Y-111677002D01*
X112275000Y-111627000D01*
X113925030Y-111627000D01*
X113788725Y-111683320D01*
X113788725Y-111683320D01*
G37*
X113788725Y-111683320D02*
X113584039Y-111887650D01*
X113548060Y-111974295D01*
X113545244Y-111973126D01*
X113256025Y-111972874D01*
X112988725Y-112083320D01*
X112784039Y-112287650D01*
X112673126Y-112554756D01*
X112673073Y-112615358D01*
X112556922Y-112789192D01*
X112512999Y-113010000D01*
X112513000Y-113010005D01*
X112513000Y-114000000D01*
X112529635Y-114083629D01*
X112529635Y-114500000D01*
X112559409Y-114658237D01*
X112652927Y-114803567D01*
X112795619Y-114901064D01*
X112965000Y-114935365D01*
X113215000Y-114935365D01*
X113256428Y-114927570D01*
X113178697Y-115005301D01*
X113169381Y-114998936D01*
X113000000Y-114964635D01*
X111200000Y-114964635D01*
X111041763Y-114994409D01*
X110896433Y-115087927D01*
X110798936Y-115230619D01*
X110764635Y-115400000D01*
X110764635Y-117400000D01*
X110794409Y-117558237D01*
X110887927Y-117703567D01*
X111030619Y-117801064D01*
X111073000Y-117809646D01*
X111073000Y-118131483D01*
X110946433Y-118212927D01*
X110848936Y-118355619D01*
X110814635Y-118525000D01*
X110814635Y-119275000D01*
X110844409Y-119433237D01*
X110937927Y-119578567D01*
X110973858Y-119603117D01*
X110811673Y-119765301D01*
X110715000Y-119998690D01*
X110715000Y-120214250D01*
X110873750Y-120373000D01*
X111623000Y-120373000D01*
X111623000Y-120353000D01*
X111877000Y-120353000D01*
X111877000Y-120373000D01*
X111897000Y-120373000D01*
X111897000Y-120627000D01*
X111877000Y-120627000D01*
X111877000Y-120647000D01*
X111623000Y-120647000D01*
X111623000Y-120627000D01*
X110873750Y-120627000D01*
X110715000Y-120785750D01*
X110715000Y-121001310D01*
X110811673Y-121234699D01*
X110919975Y-121343000D01*
X110671365Y-121343000D01*
X110671365Y-121056400D01*
X110641591Y-120898163D01*
X110548073Y-120752833D01*
X110405381Y-120655336D01*
X110236000Y-120621035D01*
X109649850Y-120621035D01*
X109894561Y-120572359D01*
X110313262Y-120292592D01*
X110593029Y-119873891D01*
X110691270Y-119380000D01*
X110593029Y-118886109D01*
X110313262Y-118467408D01*
X109894561Y-118187641D01*
X109504233Y-118110000D01*
X109894561Y-118032359D01*
X110313262Y-117752592D01*
X110593029Y-117333891D01*
X110691270Y-116840000D01*
X110593029Y-116346109D01*
X110313262Y-115927408D01*
X109894561Y-115647641D01*
X109504233Y-115570000D01*
X109894561Y-115492359D01*
X110313262Y-115212592D01*
X110593029Y-114793891D01*
X110691270Y-114300000D01*
X110593029Y-113806109D01*
X110313262Y-113387408D01*
X109894561Y-113107641D01*
X109504233Y-113030000D01*
X109894561Y-112952359D01*
X110223102Y-112732835D01*
X110222874Y-112993975D01*
X110333320Y-113261275D01*
X110537650Y-113465961D01*
X110804756Y-113576874D01*
X111093975Y-113577126D01*
X111361275Y-113466680D01*
X111565961Y-113262350D01*
X111676874Y-112995244D01*
X111676991Y-112861137D01*
X111717001Y-112660000D01*
X111717000Y-112659995D01*
X111717000Y-112595877D01*
X111798237Y-112580591D01*
X111943567Y-112487073D01*
X112041064Y-112344381D01*
X112075365Y-112175000D01*
X112075365Y-112137660D01*
X112178327Y-112034699D01*
X112275000Y-111801310D01*
X112275000Y-111771250D01*
X112180752Y-111677002D01*
X112275000Y-111677002D01*
X112275000Y-111627000D01*
X113925030Y-111627000D01*
X113788725Y-111683320D01*
G36*
X115164635Y-115872014D02*
X115164635Y-117400000D01*
X115194409Y-117558237D01*
X115287927Y-117703567D01*
X115430619Y-117801064D01*
X115600000Y-117835365D01*
X115673000Y-117835365D01*
X115673000Y-118131483D01*
X115661749Y-118138723D01*
X115509698Y-117986673D01*
X115276309Y-117890000D01*
X115035750Y-117890000D01*
X114877000Y-118048750D01*
X114877000Y-118773000D01*
X114897000Y-118773000D01*
X114897000Y-119027000D01*
X114877000Y-119027000D01*
X114877000Y-119047000D01*
X114623000Y-119047000D01*
X114623000Y-119027000D01*
X113277000Y-119027000D01*
X113277000Y-119047000D01*
X113023000Y-119047000D01*
X113023000Y-119027000D01*
X113003000Y-119027000D01*
X113003000Y-118773000D01*
X113023000Y-118773000D01*
X113023000Y-118048750D01*
X113277000Y-118048750D01*
X113277000Y-118773000D01*
X114623000Y-118773000D01*
X114623000Y-118048750D01*
X114464250Y-117890000D01*
X114223691Y-117890000D01*
X113990302Y-117986673D01*
X113950000Y-118026975D01*
X113909698Y-117986673D01*
X113676309Y-117890000D01*
X113435750Y-117890000D01*
X113277000Y-118048750D01*
X113023000Y-118048750D01*
X112864250Y-117890000D01*
X112623691Y-117890000D01*
X112390302Y-117986673D01*
X112239376Y-118137598D01*
X112227000Y-118129142D01*
X112227000Y-117835365D01*
X113000000Y-117835365D01*
X113158237Y-117805591D01*
X113303567Y-117712073D01*
X113401064Y-117569381D01*
X113435365Y-117400000D01*
X113435365Y-116950074D01*
X113520808Y-116933078D01*
X113708001Y-116808001D01*
X113807998Y-116708003D01*
X113808001Y-116708001D01*
X113933078Y-116520808D01*
X113977000Y-116300000D01*
X113977000Y-115839002D01*
X114089002Y-115727000D01*
X115067741Y-115727000D01*
X115164635Y-115872014D01*
X115164635Y-115872014D01*
G37*
X115164635Y-115872014D02*
X115164635Y-117400000D01*
X115194409Y-117558237D01*
X115287927Y-117703567D01*
X115430619Y-117801064D01*
X115600000Y-117835365D01*
X115673000Y-117835365D01*
X115673000Y-118131483D01*
X115661749Y-118138723D01*
X115509698Y-117986673D01*
X115276309Y-117890000D01*
X115035750Y-117890000D01*
X114877000Y-118048750D01*
X114877000Y-118773000D01*
X114897000Y-118773000D01*
X114897000Y-119027000D01*
X114877000Y-119027000D01*
X114877000Y-119047000D01*
X114623000Y-119047000D01*
X114623000Y-119027000D01*
X113277000Y-119027000D01*
X113277000Y-119047000D01*
X113023000Y-119047000D01*
X113023000Y-119027000D01*
X113003000Y-119027000D01*
X113003000Y-118773000D01*
X113023000Y-118773000D01*
X113023000Y-118048750D01*
X113277000Y-118048750D01*
X113277000Y-118773000D01*
X114623000Y-118773000D01*
X114623000Y-118048750D01*
X114464250Y-117890000D01*
X114223691Y-117890000D01*
X113990302Y-117986673D01*
X113950000Y-118026975D01*
X113909698Y-117986673D01*
X113676309Y-117890000D01*
X113435750Y-117890000D01*
X113277000Y-118048750D01*
X113023000Y-118048750D01*
X112864250Y-117890000D01*
X112623691Y-117890000D01*
X112390302Y-117986673D01*
X112239376Y-118137598D01*
X112227000Y-118129142D01*
X112227000Y-117835365D01*
X113000000Y-117835365D01*
X113158237Y-117805591D01*
X113303567Y-117712073D01*
X113401064Y-117569381D01*
X113435365Y-117400000D01*
X113435365Y-116950074D01*
X113520808Y-116933078D01*
X113708001Y-116808001D01*
X113807998Y-116708003D01*
X113808001Y-116708001D01*
X113933078Y-116520808D01*
X113977000Y-116300000D01*
X113977000Y-115839002D01*
X114089002Y-115727000D01*
X115067741Y-115727000D01*
X115164635Y-115872014D01*
G36*
X123366738Y-112672592D02*
X123785439Y-112952359D01*
X124175767Y-113030000D01*
X123785439Y-113107641D01*
X123366738Y-113387408D01*
X123086971Y-113806109D01*
X122988730Y-114300000D01*
X123086971Y-114793891D01*
X123366738Y-115212592D01*
X123785439Y-115492359D01*
X124175767Y-115570000D01*
X123785439Y-115647641D01*
X123366738Y-115927408D01*
X123086971Y-116346109D01*
X122988730Y-116840000D01*
X123086971Y-117333891D01*
X123366738Y-117752592D01*
X123785439Y-118032359D01*
X124175767Y-118110000D01*
X123785439Y-118187641D01*
X123366738Y-118467408D01*
X123162549Y-118772998D01*
X123024332Y-118772998D01*
X123183080Y-118614250D01*
X123183080Y-118374910D01*
X123086407Y-118141521D01*
X122907778Y-117962893D01*
X122728692Y-117888713D01*
X122776064Y-117819381D01*
X122810365Y-117650000D01*
X122810365Y-116850000D01*
X122780591Y-116691763D01*
X122761277Y-116661749D01*
X122913327Y-116509698D01*
X123010000Y-116276309D01*
X123010000Y-116035750D01*
X122851250Y-115877000D01*
X122127000Y-115877000D01*
X122127000Y-115897000D01*
X121873000Y-115897000D01*
X121873000Y-115877000D01*
X121148750Y-115877000D01*
X120990000Y-116035750D01*
X120990000Y-116276309D01*
X121086673Y-116509698D01*
X121237598Y-116660624D01*
X121229142Y-116673000D01*
X120695256Y-116673000D01*
X120662073Y-116621433D01*
X120527000Y-116529142D01*
X120527000Y-116468517D01*
X120653567Y-116387073D01*
X120751064Y-116244381D01*
X120785365Y-116075000D01*
X120785365Y-115325000D01*
X120766303Y-115223691D01*
X120990000Y-115223691D01*
X120990000Y-115464250D01*
X121148750Y-115623000D01*
X121873000Y-115623000D01*
X121873000Y-114873750D01*
X122127000Y-114873750D01*
X122127000Y-115623000D01*
X122851250Y-115623000D01*
X123010000Y-115464250D01*
X123010000Y-115223691D01*
X122913327Y-114990302D01*
X122734699Y-114811673D01*
X122501310Y-114715000D01*
X122285750Y-114715000D01*
X122127000Y-114873750D01*
X121873000Y-114873750D01*
X121714250Y-114715000D01*
X121498690Y-114715000D01*
X121265301Y-114811673D01*
X121086673Y-114990302D01*
X120990000Y-115223691D01*
X120766303Y-115223691D01*
X120755591Y-115166763D01*
X120662073Y-115021433D01*
X120536108Y-114935365D01*
X120715000Y-114935365D01*
X120873237Y-114905591D01*
X121018567Y-114812073D01*
X121116064Y-114669381D01*
X121150365Y-114500000D01*
X121150365Y-114083629D01*
X121154833Y-114061169D01*
X121372962Y-113843040D01*
X121372874Y-113943975D01*
X121483320Y-114211275D01*
X121687650Y-114415961D01*
X121954756Y-114526874D01*
X122243975Y-114527126D01*
X122511275Y-114416680D01*
X122715961Y-114212350D01*
X122826874Y-113945244D01*
X122826923Y-113889079D01*
X122948001Y-113768001D01*
X123073078Y-113580808D01*
X123117001Y-113360000D01*
X123117000Y-113359995D01*
X123117000Y-112595877D01*
X123198237Y-112580591D01*
X123273084Y-112532428D01*
X123366738Y-112672592D01*
X123366738Y-112672592D01*
G37*
X123366738Y-112672592D02*
X123785439Y-112952359D01*
X124175767Y-113030000D01*
X123785439Y-113107641D01*
X123366738Y-113387408D01*
X123086971Y-113806109D01*
X122988730Y-114300000D01*
X123086971Y-114793891D01*
X123366738Y-115212592D01*
X123785439Y-115492359D01*
X124175767Y-115570000D01*
X123785439Y-115647641D01*
X123366738Y-115927408D01*
X123086971Y-116346109D01*
X122988730Y-116840000D01*
X123086971Y-117333891D01*
X123366738Y-117752592D01*
X123785439Y-118032359D01*
X124175767Y-118110000D01*
X123785439Y-118187641D01*
X123366738Y-118467408D01*
X123162549Y-118772998D01*
X123024332Y-118772998D01*
X123183080Y-118614250D01*
X123183080Y-118374910D01*
X123086407Y-118141521D01*
X122907778Y-117962893D01*
X122728692Y-117888713D01*
X122776064Y-117819381D01*
X122810365Y-117650000D01*
X122810365Y-116850000D01*
X122780591Y-116691763D01*
X122761277Y-116661749D01*
X122913327Y-116509698D01*
X123010000Y-116276309D01*
X123010000Y-116035750D01*
X122851250Y-115877000D01*
X122127000Y-115877000D01*
X122127000Y-115897000D01*
X121873000Y-115897000D01*
X121873000Y-115877000D01*
X121148750Y-115877000D01*
X120990000Y-116035750D01*
X120990000Y-116276309D01*
X121086673Y-116509698D01*
X121237598Y-116660624D01*
X121229142Y-116673000D01*
X120695256Y-116673000D01*
X120662073Y-116621433D01*
X120527000Y-116529142D01*
X120527000Y-116468517D01*
X120653567Y-116387073D01*
X120751064Y-116244381D01*
X120785365Y-116075000D01*
X120785365Y-115325000D01*
X120766303Y-115223691D01*
X120990000Y-115223691D01*
X120990000Y-115464250D01*
X121148750Y-115623000D01*
X121873000Y-115623000D01*
X121873000Y-114873750D01*
X122127000Y-114873750D01*
X122127000Y-115623000D01*
X122851250Y-115623000D01*
X123010000Y-115464250D01*
X123010000Y-115223691D01*
X122913327Y-114990302D01*
X122734699Y-114811673D01*
X122501310Y-114715000D01*
X122285750Y-114715000D01*
X122127000Y-114873750D01*
X121873000Y-114873750D01*
X121714250Y-114715000D01*
X121498690Y-114715000D01*
X121265301Y-114811673D01*
X121086673Y-114990302D01*
X120990000Y-115223691D01*
X120766303Y-115223691D01*
X120755591Y-115166763D01*
X120662073Y-115021433D01*
X120536108Y-114935365D01*
X120715000Y-114935365D01*
X120873237Y-114905591D01*
X121018567Y-114812073D01*
X121116064Y-114669381D01*
X121150365Y-114500000D01*
X121150365Y-114083629D01*
X121154833Y-114061169D01*
X121372962Y-113843040D01*
X121372874Y-113943975D01*
X121483320Y-114211275D01*
X121687650Y-114415961D01*
X121954756Y-114526874D01*
X122243975Y-114527126D01*
X122511275Y-114416680D01*
X122715961Y-114212350D01*
X122826874Y-113945244D01*
X122826923Y-113889079D01*
X122948001Y-113768001D01*
X123073078Y-113580808D01*
X123117001Y-113360000D01*
X123117000Y-113359995D01*
X123117000Y-112595877D01*
X123198237Y-112580591D01*
X123273084Y-112532428D01*
X123366738Y-112672592D01*
G36*
X118577000Y-115573000D02*
X118597000Y-115573000D01*
X118597000Y-115827000D01*
X118577000Y-115827000D01*
X118577000Y-117173000D01*
X118597000Y-117173000D01*
X118597000Y-117427000D01*
X118577000Y-117427000D01*
X118577000Y-117447000D01*
X118323000Y-117447000D01*
X118323000Y-117427000D01*
X118303000Y-117427000D01*
X118303000Y-117173000D01*
X118323000Y-117173000D01*
X118323000Y-115827000D01*
X118303000Y-115827000D01*
X118303000Y-115573000D01*
X118323000Y-115573000D01*
X118323000Y-115553000D01*
X118577000Y-115553000D01*
X118577000Y-115573000D01*
X118577000Y-115573000D01*
G37*
X118577000Y-115573000D02*
X118597000Y-115573000D01*
X118597000Y-115827000D01*
X118577000Y-115827000D01*
X118577000Y-117173000D01*
X118597000Y-117173000D01*
X118597000Y-117427000D01*
X118577000Y-117427000D01*
X118577000Y-117447000D01*
X118323000Y-117447000D01*
X118323000Y-117427000D01*
X118303000Y-117427000D01*
X118303000Y-117173000D01*
X118323000Y-117173000D01*
X118323000Y-115827000D01*
X118303000Y-115827000D01*
X118303000Y-115573000D01*
X118323000Y-115573000D01*
X118323000Y-115553000D01*
X118577000Y-115553000D01*
X118577000Y-115573000D01*
G36*
X118273000Y-109289001D02*
X118273000Y-110248757D01*
X118234039Y-110287650D01*
X118123126Y-110554756D01*
X118122874Y-110843975D01*
X118233320Y-111111275D01*
X118437650Y-111315961D01*
X118673931Y-111414074D01*
X118556922Y-111589192D01*
X118512999Y-111810000D01*
X118513000Y-111810005D01*
X118513000Y-112865000D01*
X118462998Y-112865000D01*
X118462998Y-112959248D01*
X118368750Y-112865000D01*
X118338690Y-112865000D01*
X118105301Y-112961673D01*
X118002340Y-113064635D01*
X117965000Y-113064635D01*
X117835409Y-113089019D01*
X117715000Y-113064635D01*
X117465000Y-113064635D01*
X117335409Y-113089019D01*
X117215000Y-113064635D01*
X116965000Y-113064635D01*
X116835409Y-113089019D01*
X116718526Y-113065349D01*
X116726874Y-113045244D01*
X116727126Y-112756025D01*
X116616680Y-112488725D01*
X116412350Y-112284039D01*
X116145244Y-112173126D01*
X116053848Y-112173046D01*
X116311275Y-112066680D01*
X116515961Y-111862350D01*
X116626874Y-111595244D01*
X116627126Y-111306025D01*
X116516680Y-111038725D01*
X116312350Y-110834039D01*
X116045244Y-110723126D01*
X115756025Y-110722874D01*
X115488725Y-110833320D01*
X115448976Y-110873000D01*
X114889001Y-110873000D01*
X114719597Y-110703595D01*
X114826874Y-110445244D01*
X114827074Y-110215755D01*
X114890807Y-110203077D01*
X115078000Y-110078000D01*
X115207998Y-109948001D01*
X115208001Y-109947999D01*
X115333078Y-109760806D01*
X115374209Y-109554029D01*
X115415961Y-109512350D01*
X115526874Y-109245244D01*
X115527126Y-108956025D01*
X115416680Y-108688725D01*
X115212350Y-108484039D01*
X114945244Y-108373126D01*
X114656025Y-108372874D01*
X114484517Y-108443740D01*
X114515961Y-108412350D01*
X114626874Y-108145244D01*
X114627126Y-107856025D01*
X114516680Y-107588725D01*
X114312350Y-107384039D01*
X114045244Y-107273126D01*
X113756025Y-107272874D01*
X113590496Y-107341269D01*
X113807998Y-107123767D01*
X113808001Y-107123765D01*
X114189001Y-106742764D01*
X115726762Y-106742764D01*
X118273000Y-109289001D01*
X118273000Y-109289001D01*
G37*
X118273000Y-109289001D02*
X118273000Y-110248757D01*
X118234039Y-110287650D01*
X118123126Y-110554756D01*
X118122874Y-110843975D01*
X118233320Y-111111275D01*
X118437650Y-111315961D01*
X118673931Y-111414074D01*
X118556922Y-111589192D01*
X118512999Y-111810000D01*
X118513000Y-111810005D01*
X118513000Y-112865000D01*
X118462998Y-112865000D01*
X118462998Y-112959248D01*
X118368750Y-112865000D01*
X118338690Y-112865000D01*
X118105301Y-112961673D01*
X118002340Y-113064635D01*
X117965000Y-113064635D01*
X117835409Y-113089019D01*
X117715000Y-113064635D01*
X117465000Y-113064635D01*
X117335409Y-113089019D01*
X117215000Y-113064635D01*
X116965000Y-113064635D01*
X116835409Y-113089019D01*
X116718526Y-113065349D01*
X116726874Y-113045244D01*
X116727126Y-112756025D01*
X116616680Y-112488725D01*
X116412350Y-112284039D01*
X116145244Y-112173126D01*
X116053848Y-112173046D01*
X116311275Y-112066680D01*
X116515961Y-111862350D01*
X116626874Y-111595244D01*
X116627126Y-111306025D01*
X116516680Y-111038725D01*
X116312350Y-110834039D01*
X116045244Y-110723126D01*
X115756025Y-110722874D01*
X115488725Y-110833320D01*
X115448976Y-110873000D01*
X114889001Y-110873000D01*
X114719597Y-110703595D01*
X114826874Y-110445244D01*
X114827074Y-110215755D01*
X114890807Y-110203077D01*
X115078000Y-110078000D01*
X115207998Y-109948001D01*
X115208001Y-109947999D01*
X115333078Y-109760806D01*
X115374209Y-109554029D01*
X115415961Y-109512350D01*
X115526874Y-109245244D01*
X115527126Y-108956025D01*
X115416680Y-108688725D01*
X115212350Y-108484039D01*
X114945244Y-108373126D01*
X114656025Y-108372874D01*
X114484517Y-108443740D01*
X114515961Y-108412350D01*
X114626874Y-108145244D01*
X114627126Y-107856025D01*
X114516680Y-107588725D01*
X114312350Y-107384039D01*
X114045244Y-107273126D01*
X113756025Y-107272874D01*
X113590496Y-107341269D01*
X113807998Y-107123767D01*
X113808001Y-107123765D01*
X114189001Y-106742764D01*
X115726762Y-106742764D01*
X118273000Y-109289001D01*
G36*
X121405000Y-111677002D02*
X121499248Y-111677002D01*
X121405000Y-111771250D01*
X121405000Y-111801310D01*
X121501673Y-112034699D01*
X121539921Y-112072947D01*
X121456025Y-112072874D01*
X121188725Y-112183320D01*
X121100024Y-112271866D01*
X121012350Y-112184039D01*
X120894347Y-112135040D01*
X120894459Y-112007024D01*
X120784013Y-111739724D01*
X120716406Y-111671999D01*
X121405000Y-111671999D01*
X121405000Y-111677002D01*
X121405000Y-111677002D01*
G37*
X121405000Y-111677002D02*
X121499248Y-111677002D01*
X121405000Y-111771250D01*
X121405000Y-111801310D01*
X121501673Y-112034699D01*
X121539921Y-112072947D01*
X121456025Y-112072874D01*
X121188725Y-112183320D01*
X121100024Y-112271866D01*
X121012350Y-112184039D01*
X120894347Y-112135040D01*
X120894459Y-112007024D01*
X120784013Y-111739724D01*
X120716406Y-111671999D01*
X121405000Y-111671999D01*
X121405000Y-111677002D01*
G36*
X112965000Y-103535365D02*
X113002340Y-103535365D01*
X113105301Y-103638327D01*
X113338690Y-103735000D01*
X113368750Y-103735000D01*
X113462998Y-103640752D01*
X113462998Y-103735000D01*
X113513000Y-103735000D01*
X113513000Y-104220344D01*
X113453129Y-104280111D01*
X113342216Y-104547217D01*
X113341964Y-104836436D01*
X113452410Y-105103736D01*
X113656740Y-105308422D01*
X113923846Y-105419335D01*
X114213065Y-105419587D01*
X114480365Y-105309141D01*
X114685051Y-105104811D01*
X114795964Y-104837705D01*
X114796205Y-104561037D01*
X114954756Y-104626874D01*
X115243975Y-104627126D01*
X115353708Y-104581785D01*
X115487650Y-104715961D01*
X115754756Y-104826874D01*
X116043975Y-104827126D01*
X116311275Y-104716680D01*
X116382982Y-104645098D01*
X116568945Y-104722317D01*
X116858164Y-104722569D01*
X117125464Y-104612123D01*
X117330150Y-104407793D01*
X117359309Y-104337571D01*
X117387650Y-104365961D01*
X117654756Y-104476874D01*
X117722976Y-104476933D01*
X117722874Y-104593975D01*
X117833320Y-104861275D01*
X118037650Y-105065961D01*
X118304756Y-105176874D01*
X118593975Y-105177126D01*
X118739124Y-105117152D01*
X118858486Y-105236721D01*
X118726184Y-105369022D01*
X118495244Y-105273126D01*
X118206025Y-105272874D01*
X117938725Y-105383320D01*
X117734039Y-105587650D01*
X117623126Y-105854756D01*
X117622874Y-106143975D01*
X117733320Y-106411275D01*
X117937650Y-106615961D01*
X118204756Y-106726874D01*
X118493975Y-106727126D01*
X118761275Y-106616680D01*
X118801024Y-106577000D01*
X118911203Y-106577000D01*
X118911208Y-106577001D01*
X119132016Y-106533078D01*
X119319209Y-106408001D01*
X120124502Y-105602707D01*
X120130842Y-105618050D01*
X120133116Y-105620328D01*
X120041377Y-105841258D01*
X120041125Y-106130477D01*
X120151571Y-106397777D01*
X120268794Y-106515204D01*
X120091999Y-106691999D01*
X119966922Y-106879192D01*
X119922999Y-107100000D01*
X119923000Y-107100005D01*
X119923000Y-107472889D01*
X119906025Y-107472874D01*
X119638725Y-107583320D01*
X119434039Y-107787650D01*
X119323126Y-108054756D01*
X119322874Y-108343975D01*
X119433320Y-108611275D01*
X119637650Y-108815961D01*
X119904756Y-108926874D01*
X120193975Y-108927126D01*
X120461275Y-108816680D01*
X120590806Y-108687374D01*
X120647490Y-108824560D01*
X120479434Y-108893999D01*
X120274748Y-109098329D01*
X120163835Y-109365435D01*
X120163583Y-109654654D01*
X120266945Y-109904810D01*
X120228570Y-109943119D01*
X120117657Y-110210225D01*
X120117405Y-110499444D01*
X120125072Y-110517999D01*
X120007253Y-110517999D01*
X119930809Y-110466921D01*
X119710001Y-110422998D01*
X119709996Y-110422999D01*
X119522161Y-110422999D01*
X119466680Y-110288725D01*
X119427000Y-110248976D01*
X119427000Y-109050005D01*
X119427001Y-109050000D01*
X119383078Y-108829192D01*
X119341626Y-108767154D01*
X119258001Y-108641999D01*
X119257998Y-108641997D01*
X116373765Y-105757763D01*
X116186572Y-105632686D01*
X115965764Y-105588763D01*
X115965759Y-105588764D01*
X113950000Y-105588764D01*
X113729191Y-105632686D01*
X113665864Y-105675000D01*
X113541999Y-105757763D01*
X113541997Y-105757766D01*
X113400000Y-105899762D01*
X112877000Y-105376762D01*
X112877000Y-103517544D01*
X112965000Y-103535365D01*
X112965000Y-103535365D01*
G37*
X112965000Y-103535365D02*
X113002340Y-103535365D01*
X113105301Y-103638327D01*
X113338690Y-103735000D01*
X113368750Y-103735000D01*
X113462998Y-103640752D01*
X113462998Y-103735000D01*
X113513000Y-103735000D01*
X113513000Y-104220344D01*
X113453129Y-104280111D01*
X113342216Y-104547217D01*
X113341964Y-104836436D01*
X113452410Y-105103736D01*
X113656740Y-105308422D01*
X113923846Y-105419335D01*
X114213065Y-105419587D01*
X114480365Y-105309141D01*
X114685051Y-105104811D01*
X114795964Y-104837705D01*
X114796205Y-104561037D01*
X114954756Y-104626874D01*
X115243975Y-104627126D01*
X115353708Y-104581785D01*
X115487650Y-104715961D01*
X115754756Y-104826874D01*
X116043975Y-104827126D01*
X116311275Y-104716680D01*
X116382982Y-104645098D01*
X116568945Y-104722317D01*
X116858164Y-104722569D01*
X117125464Y-104612123D01*
X117330150Y-104407793D01*
X117359309Y-104337571D01*
X117387650Y-104365961D01*
X117654756Y-104476874D01*
X117722976Y-104476933D01*
X117722874Y-104593975D01*
X117833320Y-104861275D01*
X118037650Y-105065961D01*
X118304756Y-105176874D01*
X118593975Y-105177126D01*
X118739124Y-105117152D01*
X118858486Y-105236721D01*
X118726184Y-105369022D01*
X118495244Y-105273126D01*
X118206025Y-105272874D01*
X117938725Y-105383320D01*
X117734039Y-105587650D01*
X117623126Y-105854756D01*
X117622874Y-106143975D01*
X117733320Y-106411275D01*
X117937650Y-106615961D01*
X118204756Y-106726874D01*
X118493975Y-106727126D01*
X118761275Y-106616680D01*
X118801024Y-106577000D01*
X118911203Y-106577000D01*
X118911208Y-106577001D01*
X119132016Y-106533078D01*
X119319209Y-106408001D01*
X120124502Y-105602707D01*
X120130842Y-105618050D01*
X120133116Y-105620328D01*
X120041377Y-105841258D01*
X120041125Y-106130477D01*
X120151571Y-106397777D01*
X120268794Y-106515204D01*
X120091999Y-106691999D01*
X119966922Y-106879192D01*
X119922999Y-107100000D01*
X119923000Y-107100005D01*
X119923000Y-107472889D01*
X119906025Y-107472874D01*
X119638725Y-107583320D01*
X119434039Y-107787650D01*
X119323126Y-108054756D01*
X119322874Y-108343975D01*
X119433320Y-108611275D01*
X119637650Y-108815961D01*
X119904756Y-108926874D01*
X120193975Y-108927126D01*
X120461275Y-108816680D01*
X120590806Y-108687374D01*
X120647490Y-108824560D01*
X120479434Y-108893999D01*
X120274748Y-109098329D01*
X120163835Y-109365435D01*
X120163583Y-109654654D01*
X120266945Y-109904810D01*
X120228570Y-109943119D01*
X120117657Y-110210225D01*
X120117405Y-110499444D01*
X120125072Y-110517999D01*
X120007253Y-110517999D01*
X119930809Y-110466921D01*
X119710001Y-110422998D01*
X119709996Y-110422999D01*
X119522161Y-110422999D01*
X119466680Y-110288725D01*
X119427000Y-110248976D01*
X119427000Y-109050005D01*
X119427001Y-109050000D01*
X119383078Y-108829192D01*
X119341626Y-108767154D01*
X119258001Y-108641999D01*
X119257998Y-108641997D01*
X116373765Y-105757763D01*
X116186572Y-105632686D01*
X115965764Y-105588763D01*
X115965759Y-105588764D01*
X113950000Y-105588764D01*
X113729191Y-105632686D01*
X113665864Y-105675000D01*
X113541999Y-105757763D01*
X113541997Y-105757766D01*
X113400000Y-105899762D01*
X112877000Y-105376762D01*
X112877000Y-103517544D01*
X112965000Y-103535365D01*
G36*
X120527000Y-100423000D02*
X120547000Y-100423000D01*
X120547000Y-100677000D01*
X120527000Y-100677000D01*
X120527000Y-101426250D01*
X120685750Y-101585000D01*
X120901310Y-101585000D01*
X121134699Y-101488327D01*
X121305919Y-101317106D01*
X121355619Y-101351064D01*
X121430707Y-101366270D01*
X121453010Y-101399649D01*
X121453010Y-103615005D01*
X121453009Y-103615010D01*
X121496932Y-103835818D01*
X121622009Y-104023011D01*
X121726485Y-104127487D01*
X121638936Y-104255619D01*
X121604635Y-104425000D01*
X121604635Y-104462340D01*
X121501673Y-104565301D01*
X121405000Y-104798690D01*
X121405000Y-104828750D01*
X121499248Y-104922998D01*
X121453150Y-104922998D01*
X121391346Y-104861193D01*
X121364202Y-104795500D01*
X121159872Y-104590814D01*
X121100353Y-104566099D01*
X121103088Y-104562006D01*
X121147010Y-104341198D01*
X121147010Y-103260495D01*
X121167000Y-103160000D01*
X121167000Y-102600000D01*
X121150365Y-102516371D01*
X121150365Y-102100000D01*
X121120591Y-101941763D01*
X121027073Y-101796433D01*
X120884381Y-101698936D01*
X120715000Y-101664635D01*
X120465000Y-101664635D01*
X120335409Y-101689019D01*
X120215000Y-101664635D01*
X119965000Y-101664635D01*
X119835409Y-101689019D01*
X119715000Y-101664635D01*
X119631478Y-101664635D01*
X119676064Y-101599381D01*
X119695980Y-101501035D01*
X119898690Y-101585000D01*
X120114250Y-101585000D01*
X120273000Y-101426250D01*
X120273000Y-100677000D01*
X120253000Y-100677000D01*
X120253000Y-100423000D01*
X120273000Y-100423000D01*
X120273000Y-100403000D01*
X120527000Y-100403000D01*
X120527000Y-100423000D01*
X120527000Y-100423000D01*
G37*
X120527000Y-100423000D02*
X120547000Y-100423000D01*
X120547000Y-100677000D01*
X120527000Y-100677000D01*
X120527000Y-101426250D01*
X120685750Y-101585000D01*
X120901310Y-101585000D01*
X121134699Y-101488327D01*
X121305919Y-101317106D01*
X121355619Y-101351064D01*
X121430707Y-101366270D01*
X121453010Y-101399649D01*
X121453010Y-103615005D01*
X121453009Y-103615010D01*
X121496932Y-103835818D01*
X121622009Y-104023011D01*
X121726485Y-104127487D01*
X121638936Y-104255619D01*
X121604635Y-104425000D01*
X121604635Y-104462340D01*
X121501673Y-104565301D01*
X121405000Y-104798690D01*
X121405000Y-104828750D01*
X121499248Y-104922998D01*
X121453150Y-104922998D01*
X121391346Y-104861193D01*
X121364202Y-104795500D01*
X121159872Y-104590814D01*
X121100353Y-104566099D01*
X121103088Y-104562006D01*
X121147010Y-104341198D01*
X121147010Y-103260495D01*
X121167000Y-103160000D01*
X121167000Y-102600000D01*
X121150365Y-102516371D01*
X121150365Y-102100000D01*
X121120591Y-101941763D01*
X121027073Y-101796433D01*
X120884381Y-101698936D01*
X120715000Y-101664635D01*
X120465000Y-101664635D01*
X120335409Y-101689019D01*
X120215000Y-101664635D01*
X119965000Y-101664635D01*
X119835409Y-101689019D01*
X119715000Y-101664635D01*
X119631478Y-101664635D01*
X119676064Y-101599381D01*
X119695980Y-101501035D01*
X119898690Y-101585000D01*
X120114250Y-101585000D01*
X120273000Y-101426250D01*
X120273000Y-100677000D01*
X120253000Y-100677000D01*
X120253000Y-100423000D01*
X120273000Y-100423000D01*
X120273000Y-100403000D01*
X120527000Y-100403000D01*
X120527000Y-100423000D01*
G36*
X119500898Y-93235862D02*
X119365900Y-93660540D01*
X119365900Y-93935540D01*
X120373900Y-93935540D01*
X120373900Y-93915540D01*
X120627900Y-93915540D01*
X120627900Y-93935540D01*
X121635900Y-93935540D01*
X121635900Y-93660540D01*
X121500902Y-93235862D01*
X121345886Y-93052000D01*
X123021677Y-93052000D01*
X123008635Y-93116400D01*
X123008635Y-94843600D01*
X123038409Y-95001837D01*
X123131927Y-95147167D01*
X123274619Y-95244664D01*
X123444000Y-95278965D01*
X123488689Y-95278965D01*
X123109268Y-95617964D01*
X122855291Y-96145209D01*
X122852642Y-96160974D01*
X122973783Y-96393000D01*
X124333000Y-96393000D01*
X124333000Y-96373000D01*
X124587000Y-96373000D01*
X124587000Y-96393000D01*
X124607000Y-96393000D01*
X124607000Y-96647000D01*
X124587000Y-96647000D01*
X124587000Y-96667000D01*
X124333000Y-96667000D01*
X124333000Y-96647000D01*
X122973783Y-96647000D01*
X122852642Y-96879026D01*
X122855291Y-96894791D01*
X123109268Y-97422036D01*
X123545680Y-97811954D01*
X123757757Y-97886138D01*
X123366738Y-98147408D01*
X123086971Y-98566109D01*
X122988730Y-99060000D01*
X123086971Y-99553891D01*
X123366738Y-99972592D01*
X123785439Y-100252359D01*
X124175767Y-100330000D01*
X123785439Y-100407641D01*
X123366738Y-100687408D01*
X123086971Y-101106109D01*
X122988730Y-101600000D01*
X123086971Y-102093891D01*
X123366738Y-102512592D01*
X123785439Y-102792359D01*
X124175767Y-102870000D01*
X123785439Y-102947641D01*
X123366738Y-103227408D01*
X123086971Y-103646109D01*
X123044225Y-103861009D01*
X122948001Y-103716999D01*
X122947998Y-103716997D01*
X122607010Y-103376008D01*
X122607010Y-101220445D01*
X122676064Y-101119381D01*
X122710365Y-100950000D01*
X122710365Y-100150000D01*
X122680591Y-99991763D01*
X122661277Y-99961749D01*
X122813327Y-99809698D01*
X122910000Y-99576309D01*
X122910000Y-99335750D01*
X122751250Y-99177000D01*
X122027000Y-99177000D01*
X122027000Y-99197000D01*
X121773000Y-99197000D01*
X121773000Y-99177000D01*
X121753000Y-99177000D01*
X121753000Y-98923000D01*
X121773000Y-98923000D01*
X121773000Y-98173750D01*
X122027000Y-98173750D01*
X122027000Y-98923000D01*
X122751250Y-98923000D01*
X122910000Y-98764250D01*
X122910000Y-98523691D01*
X122813327Y-98290302D01*
X122634699Y-98111673D01*
X122401310Y-98015000D01*
X122185750Y-98015000D01*
X122027000Y-98173750D01*
X121773000Y-98173750D01*
X121614250Y-98015000D01*
X121398690Y-98015000D01*
X121165301Y-98111673D01*
X121077000Y-98199974D01*
X121077000Y-97865353D01*
X121126874Y-97745244D01*
X121127126Y-97456025D01*
X121016680Y-97188725D01*
X120812350Y-96984039D01*
X120597566Y-96894852D01*
X120593634Y-96889540D01*
X120584773Y-96889540D01*
X120545244Y-96873126D01*
X120256025Y-96872874D01*
X120215690Y-96889540D01*
X119627900Y-96889540D01*
X119627900Y-96909540D01*
X119373900Y-96909540D01*
X119373900Y-96889540D01*
X119353900Y-96889540D01*
X119353900Y-96635540D01*
X119373900Y-96635540D01*
X119373900Y-95809977D01*
X119627900Y-95809977D01*
X119627900Y-96635540D01*
X120593634Y-96635540D01*
X120720168Y-96464602D01*
X120536452Y-96090719D01*
X120211949Y-95802972D01*
X119802031Y-95661311D01*
X119627900Y-95809977D01*
X119373900Y-95809977D01*
X119199769Y-95661311D01*
X118977900Y-95737985D01*
X118977900Y-95200900D01*
X118926366Y-94941823D01*
X118779611Y-94722189D01*
X118559977Y-94575434D01*
X118364729Y-94536596D01*
X118262350Y-94434039D01*
X117995244Y-94323126D01*
X117706025Y-94322874D01*
X117438725Y-94433320D01*
X117234039Y-94637650D01*
X117126351Y-94896989D01*
X117021361Y-94791999D01*
X116834168Y-94666922D01*
X116613360Y-94622999D01*
X116613355Y-94623000D01*
X114585528Y-94623000D01*
X114635900Y-94464540D01*
X114635900Y-94189540D01*
X119365900Y-94189540D01*
X119365900Y-94464540D01*
X119500898Y-94889218D01*
X119788137Y-95229908D01*
X120199026Y-95431659D01*
X120373900Y-95305494D01*
X120373900Y-94189540D01*
X120627900Y-94189540D01*
X120627900Y-95305494D01*
X120802774Y-95431659D01*
X121213663Y-95229908D01*
X121500902Y-94889218D01*
X121635900Y-94464540D01*
X121635900Y-94189540D01*
X120627900Y-94189540D01*
X120373900Y-94189540D01*
X119365900Y-94189540D01*
X114635900Y-94189540D01*
X113627900Y-94189540D01*
X113627900Y-94209540D01*
X113373900Y-94209540D01*
X113373900Y-94189540D01*
X113353900Y-94189540D01*
X113353900Y-93935540D01*
X113373900Y-93935540D01*
X113373900Y-93915540D01*
X113627900Y-93915540D01*
X113627900Y-93935540D01*
X114635900Y-93935540D01*
X114635900Y-93660540D01*
X114500902Y-93235862D01*
X114345886Y-93052000D01*
X119655914Y-93052000D01*
X119500898Y-93235862D01*
X119500898Y-93235862D01*
G37*
X119500898Y-93235862D02*
X119365900Y-93660540D01*
X119365900Y-93935540D01*
X120373900Y-93935540D01*
X120373900Y-93915540D01*
X120627900Y-93915540D01*
X120627900Y-93935540D01*
X121635900Y-93935540D01*
X121635900Y-93660540D01*
X121500902Y-93235862D01*
X121345886Y-93052000D01*
X123021677Y-93052000D01*
X123008635Y-93116400D01*
X123008635Y-94843600D01*
X123038409Y-95001837D01*
X123131927Y-95147167D01*
X123274619Y-95244664D01*
X123444000Y-95278965D01*
X123488689Y-95278965D01*
X123109268Y-95617964D01*
X122855291Y-96145209D01*
X122852642Y-96160974D01*
X122973783Y-96393000D01*
X124333000Y-96393000D01*
X124333000Y-96373000D01*
X124587000Y-96373000D01*
X124587000Y-96393000D01*
X124607000Y-96393000D01*
X124607000Y-96647000D01*
X124587000Y-96647000D01*
X124587000Y-96667000D01*
X124333000Y-96667000D01*
X124333000Y-96647000D01*
X122973783Y-96647000D01*
X122852642Y-96879026D01*
X122855291Y-96894791D01*
X123109268Y-97422036D01*
X123545680Y-97811954D01*
X123757757Y-97886138D01*
X123366738Y-98147408D01*
X123086971Y-98566109D01*
X122988730Y-99060000D01*
X123086971Y-99553891D01*
X123366738Y-99972592D01*
X123785439Y-100252359D01*
X124175767Y-100330000D01*
X123785439Y-100407641D01*
X123366738Y-100687408D01*
X123086971Y-101106109D01*
X122988730Y-101600000D01*
X123086971Y-102093891D01*
X123366738Y-102512592D01*
X123785439Y-102792359D01*
X124175767Y-102870000D01*
X123785439Y-102947641D01*
X123366738Y-103227408D01*
X123086971Y-103646109D01*
X123044225Y-103861009D01*
X122948001Y-103716999D01*
X122947998Y-103716997D01*
X122607010Y-103376008D01*
X122607010Y-101220445D01*
X122676064Y-101119381D01*
X122710365Y-100950000D01*
X122710365Y-100150000D01*
X122680591Y-99991763D01*
X122661277Y-99961749D01*
X122813327Y-99809698D01*
X122910000Y-99576309D01*
X122910000Y-99335750D01*
X122751250Y-99177000D01*
X122027000Y-99177000D01*
X122027000Y-99197000D01*
X121773000Y-99197000D01*
X121773000Y-99177000D01*
X121753000Y-99177000D01*
X121753000Y-98923000D01*
X121773000Y-98923000D01*
X121773000Y-98173750D01*
X122027000Y-98173750D01*
X122027000Y-98923000D01*
X122751250Y-98923000D01*
X122910000Y-98764250D01*
X122910000Y-98523691D01*
X122813327Y-98290302D01*
X122634699Y-98111673D01*
X122401310Y-98015000D01*
X122185750Y-98015000D01*
X122027000Y-98173750D01*
X121773000Y-98173750D01*
X121614250Y-98015000D01*
X121398690Y-98015000D01*
X121165301Y-98111673D01*
X121077000Y-98199974D01*
X121077000Y-97865353D01*
X121126874Y-97745244D01*
X121127126Y-97456025D01*
X121016680Y-97188725D01*
X120812350Y-96984039D01*
X120597566Y-96894852D01*
X120593634Y-96889540D01*
X120584773Y-96889540D01*
X120545244Y-96873126D01*
X120256025Y-96872874D01*
X120215690Y-96889540D01*
X119627900Y-96889540D01*
X119627900Y-96909540D01*
X119373900Y-96909540D01*
X119373900Y-96889540D01*
X119353900Y-96889540D01*
X119353900Y-96635540D01*
X119373900Y-96635540D01*
X119373900Y-95809977D01*
X119627900Y-95809977D01*
X119627900Y-96635540D01*
X120593634Y-96635540D01*
X120720168Y-96464602D01*
X120536452Y-96090719D01*
X120211949Y-95802972D01*
X119802031Y-95661311D01*
X119627900Y-95809977D01*
X119373900Y-95809977D01*
X119199769Y-95661311D01*
X118977900Y-95737985D01*
X118977900Y-95200900D01*
X118926366Y-94941823D01*
X118779611Y-94722189D01*
X118559977Y-94575434D01*
X118364729Y-94536596D01*
X118262350Y-94434039D01*
X117995244Y-94323126D01*
X117706025Y-94322874D01*
X117438725Y-94433320D01*
X117234039Y-94637650D01*
X117126351Y-94896989D01*
X117021361Y-94791999D01*
X116834168Y-94666922D01*
X116613360Y-94622999D01*
X116613355Y-94623000D01*
X114585528Y-94623000D01*
X114635900Y-94464540D01*
X114635900Y-94189540D01*
X119365900Y-94189540D01*
X119365900Y-94464540D01*
X119500898Y-94889218D01*
X119788137Y-95229908D01*
X120199026Y-95431659D01*
X120373900Y-95305494D01*
X120373900Y-94189540D01*
X120627900Y-94189540D01*
X120627900Y-95305494D01*
X120802774Y-95431659D01*
X121213663Y-95229908D01*
X121500902Y-94889218D01*
X121635900Y-94464540D01*
X121635900Y-94189540D01*
X120627900Y-94189540D01*
X120373900Y-94189540D01*
X119365900Y-94189540D01*
X114635900Y-94189540D01*
X113627900Y-94189540D01*
X113627900Y-94209540D01*
X113373900Y-94209540D01*
X113373900Y-94189540D01*
X113353900Y-94189540D01*
X113353900Y-93935540D01*
X113373900Y-93935540D01*
X113373900Y-93915540D01*
X113627900Y-93915540D01*
X113627900Y-93935540D01*
X114635900Y-93935540D01*
X114635900Y-93660540D01*
X114500902Y-93235862D01*
X114345886Y-93052000D01*
X119655914Y-93052000D01*
X119500898Y-93235862D01*
G36*
X111012927Y-94653567D02*
X111080636Y-94699831D01*
X111021433Y-94737927D01*
X110923936Y-94880619D01*
X110889635Y-95050000D01*
X110889635Y-95850000D01*
X110919409Y-96008237D01*
X111012927Y-96153567D01*
X111134882Y-96236895D01*
X111084039Y-96287650D01*
X110973126Y-96554756D01*
X110973077Y-96610921D01*
X110941999Y-96641999D01*
X110816922Y-96829192D01*
X110772999Y-97050000D01*
X110773000Y-97050005D01*
X110773000Y-101499995D01*
X110772999Y-101500000D01*
X110816922Y-101720808D01*
X110941999Y-101908001D01*
X111733120Y-102699122D01*
X111722999Y-102750000D01*
X111723000Y-102750005D01*
X111723000Y-103317699D01*
X111495244Y-103223126D01*
X111206025Y-103222874D01*
X110938725Y-103333320D01*
X110734039Y-103537650D01*
X110624113Y-103802379D01*
X110593029Y-103646109D01*
X110313262Y-103227408D01*
X109894561Y-102947641D01*
X109504233Y-102870000D01*
X109894561Y-102792359D01*
X110313262Y-102512592D01*
X110593029Y-102093891D01*
X110691270Y-101600000D01*
X110593029Y-101106109D01*
X110313262Y-100687408D01*
X109894561Y-100407641D01*
X109504233Y-100330000D01*
X109894561Y-100252359D01*
X110313262Y-99972592D01*
X110593029Y-99553891D01*
X110691270Y-99060000D01*
X110593029Y-98566109D01*
X110313262Y-98147408D01*
X109894561Y-97867641D01*
X109504233Y-97790000D01*
X109894561Y-97712359D01*
X110313262Y-97432592D01*
X110593029Y-97013891D01*
X110691270Y-96520000D01*
X110593029Y-96026109D01*
X110313262Y-95607408D01*
X109894561Y-95327641D01*
X109504233Y-95250000D01*
X109894561Y-95172359D01*
X110313262Y-94892592D01*
X110537497Y-94557000D01*
X110950787Y-94557000D01*
X111012927Y-94653567D01*
X111012927Y-94653567D01*
G37*
X111012927Y-94653567D02*
X111080636Y-94699831D01*
X111021433Y-94737927D01*
X110923936Y-94880619D01*
X110889635Y-95050000D01*
X110889635Y-95850000D01*
X110919409Y-96008237D01*
X111012927Y-96153567D01*
X111134882Y-96236895D01*
X111084039Y-96287650D01*
X110973126Y-96554756D01*
X110973077Y-96610921D01*
X110941999Y-96641999D01*
X110816922Y-96829192D01*
X110772999Y-97050000D01*
X110773000Y-97050005D01*
X110773000Y-101499995D01*
X110772999Y-101500000D01*
X110816922Y-101720808D01*
X110941999Y-101908001D01*
X111733120Y-102699122D01*
X111722999Y-102750000D01*
X111723000Y-102750005D01*
X111723000Y-103317699D01*
X111495244Y-103223126D01*
X111206025Y-103222874D01*
X110938725Y-103333320D01*
X110734039Y-103537650D01*
X110624113Y-103802379D01*
X110593029Y-103646109D01*
X110313262Y-103227408D01*
X109894561Y-102947641D01*
X109504233Y-102870000D01*
X109894561Y-102792359D01*
X110313262Y-102512592D01*
X110593029Y-102093891D01*
X110691270Y-101600000D01*
X110593029Y-101106109D01*
X110313262Y-100687408D01*
X109894561Y-100407641D01*
X109504233Y-100330000D01*
X109894561Y-100252359D01*
X110313262Y-99972592D01*
X110593029Y-99553891D01*
X110691270Y-99060000D01*
X110593029Y-98566109D01*
X110313262Y-98147408D01*
X109894561Y-97867641D01*
X109504233Y-97790000D01*
X109894561Y-97712359D01*
X110313262Y-97432592D01*
X110593029Y-97013891D01*
X110691270Y-96520000D01*
X110593029Y-96026109D01*
X110313262Y-95607408D01*
X109894561Y-95327641D01*
X109504233Y-95250000D01*
X109894561Y-95172359D01*
X110313262Y-94892592D01*
X110537497Y-94557000D01*
X110950787Y-94557000D01*
X111012927Y-94653567D01*
G36*
X117872998Y-99865000D02*
X117972943Y-99865000D01*
X117972874Y-99943975D01*
X118083320Y-100211275D01*
X118198427Y-100326583D01*
X118189635Y-100370000D01*
X118189635Y-101430000D01*
X118219409Y-101588237D01*
X118276597Y-101677109D01*
X118215000Y-101664635D01*
X117965000Y-101664635D01*
X117835409Y-101689019D01*
X117729475Y-101667566D01*
X117776064Y-101599381D01*
X117810365Y-101430000D01*
X117810365Y-100370000D01*
X117780591Y-100211763D01*
X117687073Y-100066433D01*
X117544381Y-99968936D01*
X117375000Y-99934635D01*
X116725000Y-99934635D01*
X116566763Y-99964409D01*
X116421433Y-100057927D01*
X116384418Y-100112101D01*
X116380591Y-100091763D01*
X116361277Y-100061749D01*
X116513327Y-99909698D01*
X116542688Y-99838815D01*
X116754756Y-99926874D01*
X117043975Y-99927126D01*
X117311275Y-99816680D01*
X117346688Y-99781328D01*
X117548690Y-99865000D01*
X117714250Y-99865000D01*
X117872998Y-99706252D01*
X117872998Y-99865000D01*
X117872998Y-99865000D01*
G37*
X117872998Y-99865000D02*
X117972943Y-99865000D01*
X117972874Y-99943975D01*
X118083320Y-100211275D01*
X118198427Y-100326583D01*
X118189635Y-100370000D01*
X118189635Y-101430000D01*
X118219409Y-101588237D01*
X118276597Y-101677109D01*
X118215000Y-101664635D01*
X117965000Y-101664635D01*
X117835409Y-101689019D01*
X117729475Y-101667566D01*
X117776064Y-101599381D01*
X117810365Y-101430000D01*
X117810365Y-100370000D01*
X117780591Y-100211763D01*
X117687073Y-100066433D01*
X117544381Y-99968936D01*
X117375000Y-99934635D01*
X116725000Y-99934635D01*
X116566763Y-99964409D01*
X116421433Y-100057927D01*
X116384418Y-100112101D01*
X116380591Y-100091763D01*
X116361277Y-100061749D01*
X116513327Y-99909698D01*
X116542688Y-99838815D01*
X116754756Y-99926874D01*
X117043975Y-99927126D01*
X117311275Y-99816680D01*
X117346688Y-99781328D01*
X117548690Y-99865000D01*
X117714250Y-99865000D01*
X117872998Y-99706252D01*
X117872998Y-99865000D01*
G36*
X115727000Y-99023000D02*
X115747000Y-99023000D01*
X115747000Y-99277000D01*
X115727000Y-99277000D01*
X115727000Y-99297000D01*
X115473000Y-99297000D01*
X115473000Y-99277000D01*
X115453000Y-99277000D01*
X115453000Y-99023000D01*
X115473000Y-99023000D01*
X115473000Y-99003000D01*
X115727000Y-99003000D01*
X115727000Y-99023000D01*
X115727000Y-99023000D01*
G37*
X115727000Y-99023000D02*
X115747000Y-99023000D01*
X115747000Y-99277000D01*
X115727000Y-99277000D01*
X115727000Y-99297000D01*
X115473000Y-99297000D01*
X115473000Y-99277000D01*
X115453000Y-99277000D01*
X115453000Y-99023000D01*
X115473000Y-99023000D01*
X115473000Y-99003000D01*
X115727000Y-99003000D01*
X115727000Y-99023000D01*
G36*
X118127000Y-98573000D02*
X118147000Y-98573000D01*
X118147000Y-98827000D01*
X118127000Y-98827000D01*
X118127000Y-98847000D01*
X117873000Y-98847000D01*
X117873000Y-98827000D01*
X117853000Y-98827000D01*
X117853000Y-98573000D01*
X117873000Y-98573000D01*
X117873000Y-98553000D01*
X118127000Y-98553000D01*
X118127000Y-98573000D01*
X118127000Y-98573000D01*
G37*
X118127000Y-98573000D02*
X118147000Y-98573000D01*
X118147000Y-98827000D01*
X118127000Y-98827000D01*
X118127000Y-98847000D01*
X117873000Y-98847000D01*
X117873000Y-98827000D01*
X117853000Y-98827000D01*
X117853000Y-98573000D01*
X117873000Y-98573000D01*
X117873000Y-98553000D01*
X118127000Y-98553000D01*
X118127000Y-98573000D01*
G36*
X114627900Y-96635540D02*
X114647900Y-96635540D01*
X114647900Y-96889540D01*
X114627900Y-96889540D01*
X114627900Y-96909540D01*
X114373900Y-96909540D01*
X114373900Y-96889540D01*
X114353900Y-96889540D01*
X114353900Y-96635540D01*
X114373900Y-96635540D01*
X114373900Y-96615540D01*
X114627900Y-96615540D01*
X114627900Y-96635540D01*
X114627900Y-96635540D01*
G37*
X114627900Y-96635540D02*
X114647900Y-96635540D01*
X114647900Y-96889540D01*
X114627900Y-96889540D01*
X114627900Y-96909540D01*
X114373900Y-96909540D01*
X114373900Y-96889540D01*
X114353900Y-96889540D01*
X114353900Y-96635540D01*
X114373900Y-96635540D01*
X114373900Y-96615540D01*
X114627900Y-96615540D01*
X114627900Y-96635540D01*
M02*
