M48
;DRILL file {KiCad 4.0.2-stable} date 09.08.2016 00:29:28
;FORMAT={-:-/ absolute / metric / decimal}
FMAT,2
METRIC,TZ
T1C0.400
T2C0.500
T3C0.550
T4C0.800
T5C1.016
%
G90
G05
M71
T1
X108.6Y-123.6
X110.45Y-118.15
X110.55Y-100.4
X110.6Y-95.2
X110.6Y-97.9
X110.7Y-120.5
X110.75Y-102.55
X110.95Y-112.85
X111.35Y-103.95
X111.5Y-114.5
X111.65Y-124.65
X111.7Y-96.7
X112.5Y-108.04
X113.4Y-112.7
X113.495Y-111.795
X113.9Y-108.
X113.9Y-123.4
X114.Y-109.
X114.069Y-104.692
X114.1Y-110.3
X114.2Y-112.3
X114.2Y-116.05
X114.4Y-121.9
X114.75Y-117.85
X114.8Y-107.65
X114.8Y-109.1
X114.95Y-110.6
X115.1Y-103.9
X115.1Y-112.6
X115.7Y-124.6
X115.8Y-100.9
X115.85Y-93.5
X115.9Y-104.1
X115.9Y-111.45
X116.Y-112.9
X116.714Y-103.995
X116.9Y-99.2
X117.8Y-103.75
X117.85Y-95.05
X117.85Y-112.6
X118.Y-101.2
X118.1Y-98.1
X118.2Y-119.6
X118.35Y-106.
X118.45Y-104.45
X118.7Y-99.8
X118.85Y-110.7
X118.85Y-116.5
X119.314Y-104.664
X119.4Y-124.4
X119.85Y-106.2
X120.Y-110.05
X120.05Y-108.2
X120.167Y-112.151
X120.4Y-97.6
X120.4Y-101.25
X120.6Y-112.8
X120.748Y-105.207
X120.768Y-105.987
X120.845Y-110.355
X120.891Y-109.511
X121.15Y-107.5
X121.2Y-111.725
X121.25Y-103.95
X121.3Y-108.5
X121.4Y-100.
X121.6Y-112.8
X122.Y-93.2
X122.1Y-113.8
X122.4Y-96.1
X122.75Y-124.67
X123.5Y-127.85
X125.15Y-123.45
T4
X115.1Y-120.5
X117.3Y-120.5
T5
X109.22Y-93.98
X109.22Y-96.52
X109.22Y-99.06
X109.22Y-101.6
X109.22Y-104.14
X109.22Y-106.68
X109.22Y-109.22
X109.22Y-111.76
X109.22Y-114.3
X109.22Y-116.84
X109.22Y-119.38
X109.22Y-121.92
X111.76Y-127.
X114.3Y-127.
X116.84Y-127.
X119.38Y-127.
X121.92Y-127.
X124.46Y-93.98
X124.46Y-96.52
X124.46Y-99.06
X124.46Y-101.6
X124.46Y-104.14
X124.46Y-106.68
X124.46Y-109.22
X124.46Y-111.76
X124.46Y-114.3
X124.46Y-116.84
X124.46Y-119.38
X124.46Y-121.92
T2
X113.501Y-93.738G85X113.501Y-94.388
G05
X120.501Y-93.738G85X120.501Y-94.388
G05
T3
X114.651Y-96.763G85X114.351Y-96.763
G05
X119.651Y-96.763G85X119.351Y-96.763
G05
T0
M30
