G04 #@! TF.FileFunction,Copper,L2,Bot,Signal*
%FSLAX46Y46*%
G04 Gerber Fmt 4.6, Leading zero omitted, Abs format (unit mm)*
G04 Created by KiCad (PCBNEW 4.0.2-stable) date 09.08.2016 00:31:01*
%MOMM*%
G01*
G04 APERTURE LIST*
%ADD10C,0.300000*%
%ADD11R,1.270000X0.965200*%
%ADD12R,0.965200X1.270000*%
%ADD13R,2.032000X1.727200*%
%ADD14O,2.032000X1.727200*%
%ADD15O,1.250000X0.950000*%
%ADD16O,1.000000X1.550000*%
%ADD17R,1.727200X2.032000*%
%ADD18O,1.727200X2.032000*%
%ADD19C,1.000000*%
%ADD20C,1.500000*%
%ADD21C,0.600000*%
%ADD22C,0.500000*%
%ADD23C,0.254000*%
G04 APERTURE END LIST*
D10*
D11*
X116200000Y-110150000D03*
X116200000Y-108880000D03*
X116200000Y-107610000D03*
X118600000Y-109720000D03*
X118600000Y-108450000D03*
X118600000Y-107180000D03*
D12*
X116500000Y-96400000D03*
X117770000Y-96400000D03*
D13*
X109220000Y-121920000D03*
D14*
X109220000Y-119380000D03*
X109220000Y-116840000D03*
X109220000Y-114300000D03*
X109220000Y-111760000D03*
X109220000Y-109220000D03*
X109220000Y-106680000D03*
X109220000Y-104140000D03*
X109220000Y-101600000D03*
X109220000Y-99060000D03*
X109220000Y-96520000D03*
X109220000Y-93980000D03*
D13*
X124460000Y-93980000D03*
D14*
X124460000Y-96520000D03*
X124460000Y-99060000D03*
X124460000Y-101600000D03*
X124460000Y-104140000D03*
X124460000Y-106680000D03*
X124460000Y-109220000D03*
X124460000Y-111760000D03*
X124460000Y-114300000D03*
X124460000Y-116840000D03*
X124460000Y-119380000D03*
X124460000Y-121920000D03*
D15*
X119500900Y-96762540D03*
X114500900Y-96762540D03*
D16*
X120500900Y-94062540D03*
X113500900Y-94062540D03*
D17*
X121920000Y-127000000D03*
D18*
X119380000Y-127000000D03*
X116840000Y-127000000D03*
X114300000Y-127000000D03*
X111760000Y-127000000D03*
D19*
X117300000Y-120500000D03*
D20*
X112600000Y-102200000D03*
X112100000Y-104850000D03*
D19*
X115100000Y-120500000D03*
D21*
X122000000Y-93200000D03*
X118100000Y-98100000D03*
X110450000Y-118150000D03*
X111650000Y-124650000D03*
X123500000Y-127850000D03*
X125150000Y-123450000D03*
X111500000Y-114500000D03*
X114200000Y-116050000D03*
X114750000Y-117850000D03*
X110750000Y-102550000D03*
X110550000Y-100400000D03*
X110600000Y-97900000D03*
X115850000Y-93500000D03*
X122400000Y-96100000D03*
X118000000Y-101200000D03*
X120400000Y-101250000D03*
X110600000Y-95200000D03*
X120000000Y-110050000D03*
X121200000Y-111725009D03*
X117850000Y-112600000D03*
X114800000Y-107650000D03*
X114950000Y-110600000D03*
X118850000Y-116500000D03*
X121250000Y-103950000D03*
X119850000Y-106200000D03*
X113495484Y-111795484D03*
X114400000Y-121900000D03*
X119400000Y-124400000D03*
X115700000Y-124600000D03*
X110700000Y-120500000D03*
X108600000Y-123600000D03*
X115100000Y-112600000D03*
X114200000Y-112300000D03*
X121400000Y-100000000D03*
X118700000Y-99800000D03*
X111700000Y-96700000D03*
X112500000Y-108040028D03*
X110950000Y-112850000D03*
X118850000Y-110700000D03*
X118200000Y-119600000D03*
X115800000Y-100900000D03*
X116900000Y-99200000D03*
X120400000Y-97600000D03*
X113900000Y-123400000D03*
X116000000Y-112900000D03*
X114800000Y-109100000D03*
X120050000Y-108200000D03*
X114100000Y-110300000D03*
X114000000Y-109000000D03*
X113900000Y-108000000D03*
X115100000Y-103900000D03*
X115900000Y-104100000D03*
X116714189Y-103995443D03*
X117800000Y-103750000D03*
X118450000Y-104450000D03*
X119314403Y-104664403D03*
X118350000Y-106000000D03*
X120167333Y-112150999D03*
X113400000Y-112700000D03*
X120747522Y-105206775D03*
X120768251Y-105986502D03*
X121150000Y-107500000D03*
X121300000Y-108500000D03*
X120890709Y-109510679D03*
X120844531Y-110355469D03*
X122100000Y-113800000D03*
X121600000Y-112800000D03*
X114069090Y-104692461D03*
X111350000Y-103950000D03*
X122750000Y-124669990D03*
X115900000Y-111450000D03*
X120600000Y-112800000D03*
X117850000Y-95050000D03*
D10*
X124460000Y-96520000D02*
X122820000Y-96520000D01*
X122820000Y-96520000D02*
X122400000Y-96100000D01*
X118000000Y-101200000D02*
X120350000Y-101200000D01*
X120350000Y-101200000D02*
X120400000Y-101250000D01*
X120400000Y-101250000D02*
X120400000Y-103100000D01*
X120400000Y-103100000D02*
X121250000Y-103950000D01*
X120475010Y-111425010D02*
X120000000Y-110950000D01*
X120000000Y-110950000D02*
X120000000Y-110050000D01*
X121200000Y-111725009D02*
X120900001Y-111425010D01*
X120900001Y-111425010D02*
X120475010Y-111425010D01*
X118117278Y-97961101D02*
X118417277Y-97661102D01*
X118417277Y-97661102D02*
X119177338Y-97661102D01*
X119177338Y-97661102D02*
X119500900Y-97337540D01*
X119500900Y-97337540D02*
X119500900Y-96562540D01*
X117850000Y-112600000D02*
X118850000Y-113600000D01*
X118850000Y-113600000D02*
X118850000Y-116500000D01*
X116200000Y-107610000D02*
X114840000Y-107610000D01*
X114840000Y-107610000D02*
X114800000Y-107650000D01*
X113495484Y-111795484D02*
X113754516Y-111795484D01*
X113754516Y-111795484D02*
X114950000Y-110600000D01*
X118850000Y-116500000D02*
X118850000Y-116924264D01*
X118850000Y-116924264D02*
X119400000Y-117474264D01*
X119400000Y-117474264D02*
X119400000Y-123975736D01*
X119400000Y-123975736D02*
X119400000Y-124400000D01*
X116100000Y-107710000D02*
X117035000Y-107710000D01*
X117035000Y-107710000D02*
X117565000Y-107180000D01*
X117565000Y-107180000D02*
X117665000Y-107180000D01*
X117665000Y-107180000D02*
X118600000Y-107180000D01*
X113900000Y-119400000D02*
X113900000Y-121400000D01*
X113900000Y-121400000D02*
X114400000Y-121900000D01*
X114800000Y-118500000D02*
X113900000Y-119400000D01*
X114800000Y-117800000D02*
X114800000Y-118500000D01*
X111500000Y-122113602D02*
X111500000Y-121300000D01*
X111500000Y-121300000D02*
X110700000Y-120500000D01*
X109224264Y-123400000D02*
X110213602Y-123400000D01*
X110213602Y-123400000D02*
X111500000Y-122113602D01*
X108600000Y-123600000D02*
X109024264Y-123600000D01*
X109024264Y-123600000D02*
X109224264Y-123400000D01*
X116300000Y-112100000D02*
X117300000Y-113100000D01*
X117300000Y-113100000D02*
X117300000Y-120500000D01*
X115600000Y-112100000D02*
X116300000Y-112100000D01*
X115100000Y-112600000D02*
X115600000Y-112100000D01*
X114200000Y-112300000D02*
X114200000Y-113000000D01*
X114200000Y-113000000D02*
X115719990Y-114519990D01*
X115719990Y-114519990D02*
X115719990Y-119880010D01*
X115719990Y-119880010D02*
X115100000Y-120500000D01*
X118700000Y-99800000D02*
X121200000Y-99800000D01*
X121200000Y-99800000D02*
X121400000Y-100000000D01*
D22*
X118700000Y-99800000D02*
X117380402Y-99800000D01*
X117250401Y-99930001D02*
X116430001Y-99930001D01*
X117380402Y-99800000D02*
X117250401Y-99930001D01*
D10*
X112300000Y-96300000D02*
X112100000Y-96300000D01*
X112100000Y-96300000D02*
X111700000Y-96700000D01*
X111250000Y-109050000D02*
X112259972Y-108040028D01*
X112259972Y-108040028D02*
X112500000Y-108040028D01*
X111250000Y-112125736D02*
X111250000Y-109050000D01*
X110950000Y-112850000D02*
X110950000Y-112425736D01*
X110950000Y-112425736D02*
X111250000Y-112125736D01*
X118600000Y-109720000D02*
X118600000Y-110450000D01*
X118600000Y-110450000D02*
X118850000Y-110700000D01*
X115900000Y-110250000D02*
X118070000Y-110250000D01*
X118070000Y-110250000D02*
X118600000Y-109720000D01*
X118700000Y-123600000D02*
X116840000Y-125460000D01*
X116840000Y-125460000D02*
X116840000Y-127000000D01*
X118700000Y-120100000D02*
X118700000Y-123600000D01*
X118200000Y-119600000D02*
X118700000Y-120100000D01*
X115800000Y-100900000D02*
X115800000Y-100475736D01*
X115800000Y-100475736D02*
X116345735Y-99930001D01*
X116345735Y-99930001D02*
X116430001Y-99930001D01*
D22*
X112300000Y-94400000D02*
X111880000Y-93980000D01*
X111880000Y-93980000D02*
X109220000Y-93980000D01*
X112300000Y-96300000D02*
X112300000Y-94400000D01*
X114100000Y-98100000D02*
X112300000Y-96300000D01*
X114600000Y-98100000D02*
X114100000Y-98100000D01*
X116430001Y-99930001D02*
X114600000Y-98100000D01*
X121000000Y-95400000D02*
X121000000Y-97000000D01*
X121000000Y-97000000D02*
X120400000Y-97600000D01*
X116500000Y-96400000D02*
X116500000Y-94650000D01*
X116500000Y-94650000D02*
X117100000Y-94050000D01*
X117100000Y-94050000D02*
X118450000Y-94050000D01*
X118450000Y-94050000D02*
X119800000Y-95400000D01*
X119800000Y-95400000D02*
X119900000Y-95400000D01*
X119900000Y-95400000D02*
X121000000Y-95400000D01*
X116900000Y-99200000D02*
X116500000Y-98800000D01*
X116500000Y-98800000D02*
X116500000Y-96400000D01*
X121000000Y-95400000D02*
X122420000Y-93980000D01*
X122420000Y-93980000D02*
X124460000Y-93980000D01*
D10*
X115300000Y-123300000D02*
X114000000Y-123300000D01*
X114000000Y-123300000D02*
X113900000Y-123400000D01*
X116200000Y-122400000D02*
X115300000Y-123300000D01*
X116200000Y-121000000D02*
X116200000Y-122400000D01*
X116200000Y-116400000D02*
X116200000Y-121000000D01*
X116200000Y-113524264D02*
X116200000Y-116400000D01*
X116000000Y-112900000D02*
X116000000Y-113324264D01*
X116000000Y-113324264D02*
X116200000Y-113524264D01*
X114800000Y-109100000D02*
X115780000Y-109100000D01*
X115780000Y-109100000D02*
X115900000Y-108980000D01*
X120050000Y-108200000D02*
X118700000Y-108200000D01*
X118700000Y-108200000D02*
X118600000Y-108300000D01*
X114100000Y-110300000D02*
X113378836Y-110300000D01*
X112769999Y-110908837D02*
X112769999Y-113002401D01*
X112800000Y-117300000D02*
X110720000Y-119380000D01*
X113378836Y-110300000D02*
X112769999Y-110908837D01*
X112769999Y-113002401D02*
X112800000Y-113032402D01*
X112800000Y-113032402D02*
X112800000Y-117300000D01*
X110720000Y-119380000D02*
X109220000Y-119380000D01*
X109220000Y-116840000D02*
X110536000Y-116840000D01*
X110536000Y-116840000D02*
X112289989Y-115086011D01*
X112289989Y-110710011D02*
X113469999Y-109530001D01*
X112289989Y-115086011D02*
X112289989Y-110710011D01*
X113469999Y-109530001D02*
X114000000Y-109000000D01*
X109220000Y-114300000D02*
X110700000Y-114300000D01*
X110700000Y-114300000D02*
X111809979Y-113190021D01*
X111809979Y-113190021D02*
X111809979Y-110257619D01*
X111809979Y-110257619D02*
X113900000Y-108167598D01*
X113900000Y-108167598D02*
X113900000Y-108000000D01*
X109220000Y-99060000D02*
X110536000Y-99060000D01*
X110536000Y-99060000D02*
X111276000Y-99800000D01*
X111276000Y-99800000D02*
X113100000Y-99800000D01*
X113100000Y-99800000D02*
X115100000Y-101800000D01*
X115100000Y-101800000D02*
X115100000Y-103900000D01*
X109220000Y-96520000D02*
X110498836Y-96520000D01*
X110498836Y-96520000D02*
X115900000Y-101921164D01*
X115900000Y-101921164D02*
X115900000Y-104100000D01*
X114400000Y-104132402D02*
X114867598Y-104600000D01*
X114867598Y-104600000D02*
X115467598Y-104600000D01*
X115467598Y-104600000D02*
X115717598Y-104850000D01*
X115717598Y-104850000D02*
X116082402Y-104850000D01*
X109220000Y-101600000D02*
X110900000Y-101600000D01*
X110900000Y-101600000D02*
X111700000Y-100800000D01*
X111700000Y-100800000D02*
X113350000Y-100800000D01*
X113350000Y-100800000D02*
X114400000Y-101850000D01*
X114400000Y-101850000D02*
X114400000Y-104132402D01*
X116530001Y-104402401D02*
X116530001Y-104179631D01*
X116082402Y-104850000D02*
X116530001Y-104402401D01*
X116530001Y-104179631D02*
X116714189Y-103995443D01*
X117800000Y-103750000D02*
X117800000Y-103850000D01*
X117800000Y-103850000D02*
X116319990Y-105330010D01*
X116319990Y-105330010D02*
X113430010Y-105330010D01*
X113430010Y-105330010D02*
X113350000Y-105250000D01*
X113350000Y-105250000D02*
X113350000Y-104412412D01*
X113350000Y-104412412D02*
X112257587Y-103319999D01*
X112257587Y-103319999D02*
X110330001Y-103319999D01*
X110330001Y-103319999D02*
X109510000Y-104140000D01*
X109510000Y-104140000D02*
X109220000Y-104140000D01*
X116539980Y-105810020D02*
X117900000Y-104450000D01*
X117900000Y-104450000D02*
X118450000Y-104450000D01*
X112550000Y-106450000D02*
X113189980Y-105810020D01*
X113189980Y-105810020D02*
X116539980Y-105810020D01*
X110766000Y-106450000D02*
X112550000Y-106450000D01*
X109220000Y-106680000D02*
X110536000Y-106680000D01*
X110536000Y-106680000D02*
X110766000Y-106450000D01*
X117950000Y-105150000D02*
X118828806Y-105150000D01*
X118828806Y-105150000D02*
X119314403Y-104664403D01*
X116809970Y-106290030D02*
X117950000Y-105150000D01*
X112748827Y-106930009D02*
X113388806Y-106290030D01*
X113388806Y-106290030D02*
X116809970Y-106290030D01*
X109220000Y-109220000D02*
X109372400Y-109220000D01*
X109372400Y-109220000D02*
X111662390Y-106930010D01*
X111662390Y-106930010D02*
X112748827Y-106930009D01*
X117029960Y-106770040D02*
X117800000Y-106000000D01*
X117800000Y-106000000D02*
X118350000Y-106000000D01*
X117008796Y-106770040D02*
X117029960Y-106770040D01*
X109372400Y-111760000D02*
X109220000Y-111760000D01*
X111861218Y-107410018D02*
X110750000Y-108521236D01*
X117008796Y-106770040D02*
X113587632Y-106770040D01*
X113587632Y-106770040D02*
X112947654Y-107410018D01*
X112947654Y-107410018D02*
X111861218Y-107410018D01*
X110750000Y-108521236D02*
X110750000Y-110382400D01*
X110750000Y-110382400D02*
X109372400Y-111760000D01*
X120167333Y-112150999D02*
X119969999Y-112348333D01*
X123519990Y-125080010D02*
X123300000Y-125300000D01*
X119764000Y-125300000D02*
X119380000Y-125684000D01*
X119969999Y-112348333D02*
X119969999Y-113069999D01*
X119969999Y-113069999D02*
X120509979Y-113609979D01*
X123519990Y-124098826D02*
X123519990Y-125080010D01*
X120509979Y-113609979D02*
X120509979Y-115109979D01*
X120509979Y-115109979D02*
X120879964Y-115479964D01*
X120879964Y-115479964D02*
X120879964Y-116127708D01*
X120879964Y-116127708D02*
X121339982Y-116587726D01*
X121339982Y-116587726D02*
X121339982Y-118497654D01*
X121839981Y-121018817D02*
X122419990Y-121598826D01*
X122419990Y-121598826D02*
X122419991Y-122998827D01*
X121339982Y-118497654D02*
X121839980Y-118997652D01*
X121839980Y-118997652D02*
X121839981Y-121018817D01*
X123300000Y-125300000D02*
X119764000Y-125300000D01*
X122419991Y-122998827D02*
X123519990Y-124098826D01*
X119380000Y-125684000D02*
X119380000Y-127000000D01*
X111760000Y-127000000D02*
X111760000Y-126840000D01*
X111760000Y-126840000D02*
X112800000Y-125800000D01*
X112800000Y-125800000D02*
X112800000Y-118700000D01*
X112800000Y-118700000D02*
X115100000Y-116400000D01*
X115100000Y-116400000D02*
X115100000Y-114824264D01*
X115100000Y-114824264D02*
X113400000Y-113124264D01*
X113400000Y-113124264D02*
X113400000Y-112700000D01*
X120747522Y-105206775D02*
X121243225Y-105206775D01*
X122419990Y-104030010D02*
X122419990Y-100947610D01*
X121243225Y-105206775D02*
X122419990Y-104030010D01*
X122419990Y-100947610D02*
X124307600Y-99060000D01*
X124307600Y-99060000D02*
X124460000Y-99060000D01*
X122900000Y-104868764D02*
X122900000Y-103007600D01*
X122900000Y-103007600D02*
X124307600Y-101600000D01*
X124307600Y-101600000D02*
X124460000Y-101600000D01*
X120768251Y-105986502D02*
X121782262Y-105986502D01*
X121782262Y-105986502D02*
X122900000Y-104868764D01*
X122900000Y-106550000D02*
X122900000Y-105547600D01*
X122900000Y-105547600D02*
X124307600Y-104140000D01*
X124307600Y-104140000D02*
X124460000Y-104140000D01*
X122249999Y-107200001D02*
X122900000Y-106550000D01*
X121150000Y-107500000D02*
X121449999Y-107200001D01*
X121449999Y-107200001D02*
X122249999Y-107200001D01*
X121300000Y-108500000D02*
X124460000Y-111660000D01*
X124460000Y-111660000D02*
X124460000Y-111760000D01*
X122800000Y-110678836D02*
X122800000Y-112792400D01*
X122800000Y-112792400D02*
X124307600Y-114300000D01*
X124307600Y-114300000D02*
X124460000Y-114300000D01*
X120890709Y-109510679D02*
X121631843Y-109510679D01*
X121631843Y-109510679D02*
X122800000Y-110678836D01*
X122800000Y-113471236D02*
X122800000Y-115332400D01*
X122800000Y-115332400D02*
X124307600Y-116840000D01*
X124307600Y-116840000D02*
X124460000Y-116840000D01*
X122319990Y-112991226D02*
X122800000Y-113471236D01*
X121797797Y-110355469D02*
X122319990Y-110877662D01*
X122319990Y-110877662D02*
X122319990Y-112991226D01*
X120844531Y-110355469D02*
X121797797Y-110355469D01*
X122800000Y-116011236D02*
X122800000Y-117872400D01*
X122800000Y-117872400D02*
X124307600Y-119380000D01*
X124307600Y-119380000D02*
X124460000Y-119380000D01*
X122319991Y-115531227D02*
X122800000Y-116011236D01*
X122100000Y-113800000D02*
X122100000Y-114224264D01*
X122100000Y-114224264D02*
X122319990Y-114444254D01*
X122319990Y-114444254D02*
X122319991Y-115531227D01*
X122800000Y-118600000D02*
X122800000Y-120412400D01*
X122800000Y-120412400D02*
X124307600Y-121920000D01*
X124307600Y-121920000D02*
X124460000Y-121920000D01*
X122300000Y-118100000D02*
X122800000Y-118600000D01*
X122300000Y-116190072D02*
X122300000Y-118100000D01*
X121839982Y-115730054D02*
X122300000Y-116190072D01*
X121469999Y-114569999D02*
X121839982Y-114939982D01*
X121839982Y-114939982D02*
X121839982Y-115730054D01*
X121600000Y-112800000D02*
X121469999Y-112930001D01*
X121469999Y-112930001D02*
X121469999Y-114569999D01*
X114150000Y-104750000D02*
X114150000Y-104561238D01*
X114150000Y-104561238D02*
X113830010Y-104241248D01*
X113830010Y-103430010D02*
X113769990Y-103369990D01*
X113830010Y-104241248D02*
X113830010Y-103430010D01*
X113769990Y-103369990D02*
X112600000Y-102200000D01*
X111350000Y-103950000D02*
X111350000Y-104100000D01*
X111350000Y-104100000D02*
X112100000Y-104850000D01*
X122750000Y-124669990D02*
X122750000Y-124245726D01*
X122750000Y-124245726D02*
X121939982Y-123435708D01*
X121939982Y-123435708D02*
X121939982Y-123197654D01*
X115900000Y-111450000D02*
X116324264Y-111450000D01*
X116324264Y-111450000D02*
X116494254Y-111619990D01*
X116494254Y-111619990D02*
X117841154Y-111619990D01*
X117841154Y-111619990D02*
X120029969Y-113808805D01*
X120029969Y-115308805D02*
X120029969Y-113808805D01*
X120399954Y-116326534D02*
X120399954Y-115678790D01*
X120399954Y-115678790D02*
X120029969Y-115308805D01*
X120859972Y-118696480D02*
X120859972Y-116786552D01*
X120859972Y-116786552D02*
X120399954Y-116326534D01*
X121359972Y-119196480D02*
X120859972Y-118696480D01*
X121939982Y-121797654D02*
X121359972Y-121217642D01*
X121359972Y-121217642D02*
X121359972Y-119196480D01*
X121939982Y-123197654D02*
X121939982Y-121797654D01*
X124000000Y-126500000D02*
X123500000Y-127000000D01*
X123500000Y-127000000D02*
X121920000Y-127000000D01*
X124000000Y-123900000D02*
X124000000Y-126500000D01*
X122900000Y-122800000D02*
X124000000Y-123900000D01*
X122900000Y-121400000D02*
X122900000Y-122800000D01*
X122319990Y-120819990D02*
X122900000Y-121400000D01*
X121819991Y-118298827D02*
X122319990Y-118798826D01*
X122319990Y-118798826D02*
X122319990Y-120819990D01*
X121359973Y-115928881D02*
X121819990Y-116388898D01*
X121819990Y-116388898D02*
X121819991Y-118298827D01*
X120989989Y-113189989D02*
X120989989Y-114789989D01*
X120989989Y-114789989D02*
X121359972Y-115159972D01*
X121359972Y-115159972D02*
X121359973Y-115928881D01*
X120600000Y-112800000D02*
X120989989Y-113189989D01*
D22*
X117850000Y-95050000D02*
X117850000Y-96320000D01*
X117850000Y-96320000D02*
X117770000Y-96400000D01*
D10*
X118000000Y-96170000D02*
X117770000Y-96400000D01*
D23*
G36*
X112222999Y-118700000D02*
X112223000Y-118700005D01*
X112223000Y-125560998D01*
X112173098Y-125610900D01*
X111760000Y-125528730D01*
X111266109Y-125626971D01*
X110847408Y-125906738D01*
X110567641Y-126325439D01*
X110469400Y-126819330D01*
X110469400Y-127180670D01*
X110567641Y-127674561D01*
X110750347Y-127948000D01*
X108252000Y-127948000D01*
X108252000Y-123218965D01*
X110236000Y-123218965D01*
X110394237Y-123189191D01*
X110539567Y-123095673D01*
X110637064Y-122952981D01*
X110671365Y-122783600D01*
X110671365Y-121056400D01*
X110641591Y-120898163D01*
X110548073Y-120752833D01*
X110405381Y-120655336D01*
X110236000Y-120621035D01*
X109649850Y-120621035D01*
X109894561Y-120572359D01*
X110313262Y-120292592D01*
X110537497Y-119957000D01*
X110719995Y-119957000D01*
X110720000Y-119957001D01*
X110940808Y-119913078D01*
X111128001Y-119788001D01*
X112224737Y-118691265D01*
X112222999Y-118700000D01*
X112222999Y-118700000D01*
G37*
X112222999Y-118700000D02*
X112223000Y-118700005D01*
X112223000Y-125560998D01*
X112173098Y-125610900D01*
X111760000Y-125528730D01*
X111266109Y-125626971D01*
X110847408Y-125906738D01*
X110567641Y-126325439D01*
X110469400Y-126819330D01*
X110469400Y-127180670D01*
X110567641Y-127674561D01*
X110750347Y-127948000D01*
X108252000Y-127948000D01*
X108252000Y-123218965D01*
X110236000Y-123218965D01*
X110394237Y-123189191D01*
X110539567Y-123095673D01*
X110637064Y-122952981D01*
X110671365Y-122783600D01*
X110671365Y-121056400D01*
X110641591Y-120898163D01*
X110548073Y-120752833D01*
X110405381Y-120655336D01*
X110236000Y-120621035D01*
X109649850Y-120621035D01*
X109894561Y-120572359D01*
X110313262Y-120292592D01*
X110537497Y-119957000D01*
X110719995Y-119957000D01*
X110720000Y-119957001D01*
X110940808Y-119913078D01*
X111128001Y-119788001D01*
X112224737Y-118691265D01*
X112222999Y-118700000D01*
G36*
X125348000Y-127948000D02*
X123218965Y-127948000D01*
X123218965Y-127577000D01*
X123499995Y-127577000D01*
X123500000Y-127577001D01*
X123720808Y-127533078D01*
X123908001Y-127408001D01*
X124407998Y-126908003D01*
X124408001Y-126908001D01*
X124533078Y-126720808D01*
X124577001Y-126500000D01*
X124577000Y-126499995D01*
X124577000Y-123900005D01*
X124577001Y-123900000D01*
X124533078Y-123679192D01*
X124408001Y-123491999D01*
X124088679Y-123172677D01*
X124279330Y-123210600D01*
X124640670Y-123210600D01*
X125134561Y-123112359D01*
X125348000Y-122969744D01*
X125348000Y-127948000D01*
X125348000Y-127948000D01*
G37*
X125348000Y-127948000D02*
X123218965Y-127948000D01*
X123218965Y-127577000D01*
X123499995Y-127577000D01*
X123500000Y-127577001D01*
X123720808Y-127533078D01*
X123908001Y-127408001D01*
X124407998Y-126908003D01*
X124408001Y-126908001D01*
X124533078Y-126720808D01*
X124577001Y-126500000D01*
X124577000Y-126499995D01*
X124577000Y-123900005D01*
X124577001Y-123900000D01*
X124533078Y-123679192D01*
X124408001Y-123491999D01*
X124088679Y-123172677D01*
X124279330Y-123210600D01*
X124640670Y-123210600D01*
X125134561Y-123112359D01*
X125348000Y-122969744D01*
X125348000Y-127948000D01*
G36*
X118123000Y-123360999D02*
X116431999Y-125051999D01*
X116306922Y-125239192D01*
X116262999Y-125460000D01*
X116263000Y-125460005D01*
X116263000Y-125682503D01*
X115927408Y-125906738D01*
X115666138Y-126297757D01*
X115591954Y-126085680D01*
X115202036Y-125649268D01*
X114674791Y-125395291D01*
X114659026Y-125392642D01*
X114427000Y-125513783D01*
X114427000Y-126873000D01*
X114447000Y-126873000D01*
X114447000Y-127127000D01*
X114427000Y-127127000D01*
X114427000Y-127147000D01*
X114173000Y-127147000D01*
X114173000Y-127127000D01*
X114153000Y-127127000D01*
X114153000Y-126873000D01*
X114173000Y-126873000D01*
X114173000Y-125513783D01*
X113940974Y-125392642D01*
X113925209Y-125395291D01*
X113397964Y-125649268D01*
X113377000Y-125672732D01*
X113377000Y-123905118D01*
X113487650Y-124015961D01*
X113754756Y-124126874D01*
X114043975Y-124127126D01*
X114311275Y-124016680D01*
X114451198Y-123877000D01*
X115299995Y-123877000D01*
X115300000Y-123877001D01*
X115520808Y-123833078D01*
X115708001Y-123708001D01*
X116607998Y-122808003D01*
X116608001Y-122808001D01*
X116733078Y-122620808D01*
X116777000Y-122400000D01*
X116777000Y-121286572D01*
X117114799Y-121426839D01*
X117483583Y-121427161D01*
X117824417Y-121286331D01*
X118085414Y-121025789D01*
X118123000Y-120935272D01*
X118123000Y-123360999D01*
X118123000Y-123360999D01*
G37*
X118123000Y-123360999D02*
X116431999Y-125051999D01*
X116306922Y-125239192D01*
X116262999Y-125460000D01*
X116263000Y-125460005D01*
X116263000Y-125682503D01*
X115927408Y-125906738D01*
X115666138Y-126297757D01*
X115591954Y-126085680D01*
X115202036Y-125649268D01*
X114674791Y-125395291D01*
X114659026Y-125392642D01*
X114427000Y-125513783D01*
X114427000Y-126873000D01*
X114447000Y-126873000D01*
X114447000Y-127127000D01*
X114427000Y-127127000D01*
X114427000Y-127147000D01*
X114173000Y-127147000D01*
X114173000Y-127127000D01*
X114153000Y-127127000D01*
X114153000Y-126873000D01*
X114173000Y-126873000D01*
X114173000Y-125513783D01*
X113940974Y-125392642D01*
X113925209Y-125395291D01*
X113397964Y-125649268D01*
X113377000Y-125672732D01*
X113377000Y-123905118D01*
X113487650Y-124015961D01*
X113754756Y-124126874D01*
X114043975Y-124127126D01*
X114311275Y-124016680D01*
X114451198Y-123877000D01*
X115299995Y-123877000D01*
X115300000Y-123877001D01*
X115520808Y-123833078D01*
X115708001Y-123708001D01*
X116607998Y-122808003D01*
X116608001Y-122808001D01*
X116733078Y-122620808D01*
X116777000Y-122400000D01*
X116777000Y-121286572D01*
X117114799Y-121426839D01*
X117483583Y-121427161D01*
X117824417Y-121286331D01*
X118085414Y-121025789D01*
X118123000Y-120935272D01*
X118123000Y-123360999D01*
G36*
X119452969Y-114047807D02*
X119452969Y-115308800D01*
X119452968Y-115308805D01*
X119496891Y-115529613D01*
X119621968Y-115716806D01*
X119822954Y-115917791D01*
X119822954Y-116326529D01*
X119822953Y-116326534D01*
X119866876Y-116547342D01*
X119991953Y-116734535D01*
X120282972Y-117025553D01*
X120282972Y-118696475D01*
X120282971Y-118696480D01*
X120326894Y-118917288D01*
X120451971Y-119104481D01*
X120782972Y-119435481D01*
X120782972Y-121217636D01*
X120782971Y-121217641D01*
X120809910Y-121353068D01*
X120826894Y-121438450D01*
X120951971Y-121625643D01*
X120951974Y-121625645D01*
X121362982Y-122036655D01*
X121362982Y-123435703D01*
X121362981Y-123435708D01*
X121406904Y-123656516D01*
X121531981Y-123843709D01*
X122078842Y-124390569D01*
X122023126Y-124524746D01*
X122022953Y-124723000D01*
X119764005Y-124723000D01*
X119764000Y-124722999D01*
X119543192Y-124766922D01*
X119355999Y-124891999D01*
X118971999Y-125275999D01*
X118846922Y-125463192D01*
X118803342Y-125682274D01*
X118467408Y-125906738D01*
X118187641Y-126325439D01*
X118110000Y-126715767D01*
X118032359Y-126325439D01*
X117752592Y-125906738D01*
X117426891Y-125689111D01*
X119107998Y-124008003D01*
X119108001Y-124008001D01*
X119233078Y-123820808D01*
X119277000Y-123600000D01*
X119277000Y-120100005D01*
X119277001Y-120100000D01*
X119233078Y-119879192D01*
X119194067Y-119820808D01*
X119108001Y-119691999D01*
X119107998Y-119691997D01*
X118927078Y-119511077D01*
X118927126Y-119456025D01*
X118816680Y-119188725D01*
X118612350Y-118984039D01*
X118345244Y-118873126D01*
X118056025Y-118872874D01*
X117877000Y-118946846D01*
X117877000Y-113100005D01*
X117877001Y-113100000D01*
X117833078Y-112879192D01*
X117768151Y-112782021D01*
X117708001Y-112691999D01*
X117707998Y-112691997D01*
X117212991Y-112196990D01*
X117602152Y-112196990D01*
X119452969Y-114047807D01*
X119452969Y-114047807D01*
G37*
X119452969Y-114047807D02*
X119452969Y-115308800D01*
X119452968Y-115308805D01*
X119496891Y-115529613D01*
X119621968Y-115716806D01*
X119822954Y-115917791D01*
X119822954Y-116326529D01*
X119822953Y-116326534D01*
X119866876Y-116547342D01*
X119991953Y-116734535D01*
X120282972Y-117025553D01*
X120282972Y-118696475D01*
X120282971Y-118696480D01*
X120326894Y-118917288D01*
X120451971Y-119104481D01*
X120782972Y-119435481D01*
X120782972Y-121217636D01*
X120782971Y-121217641D01*
X120809910Y-121353068D01*
X120826894Y-121438450D01*
X120951971Y-121625643D01*
X120951974Y-121625645D01*
X121362982Y-122036655D01*
X121362982Y-123435703D01*
X121362981Y-123435708D01*
X121406904Y-123656516D01*
X121531981Y-123843709D01*
X122078842Y-124390569D01*
X122023126Y-124524746D01*
X122022953Y-124723000D01*
X119764005Y-124723000D01*
X119764000Y-124722999D01*
X119543192Y-124766922D01*
X119355999Y-124891999D01*
X118971999Y-125275999D01*
X118846922Y-125463192D01*
X118803342Y-125682274D01*
X118467408Y-125906738D01*
X118187641Y-126325439D01*
X118110000Y-126715767D01*
X118032359Y-126325439D01*
X117752592Y-125906738D01*
X117426891Y-125689111D01*
X119107998Y-124008003D01*
X119108001Y-124008001D01*
X119233078Y-123820808D01*
X119277000Y-123600000D01*
X119277000Y-120100005D01*
X119277001Y-120100000D01*
X119233078Y-119879192D01*
X119194067Y-119820808D01*
X119108001Y-119691999D01*
X119107998Y-119691997D01*
X118927078Y-119511077D01*
X118927126Y-119456025D01*
X118816680Y-119188725D01*
X118612350Y-118984039D01*
X118345244Y-118873126D01*
X118056025Y-118872874D01*
X117877000Y-118946846D01*
X117877000Y-113100005D01*
X117877001Y-113100000D01*
X117833078Y-112879192D01*
X117768151Y-112782021D01*
X117708001Y-112691999D01*
X117707998Y-112691997D01*
X117212991Y-112196990D01*
X117602152Y-112196990D01*
X119452969Y-114047807D01*
G36*
X115142990Y-119573037D02*
X114916417Y-119572839D01*
X114575583Y-119713669D01*
X114314586Y-119974211D01*
X114173161Y-120314799D01*
X114172839Y-120683583D01*
X114313669Y-121024417D01*
X114574211Y-121285414D01*
X114914799Y-121426839D01*
X115283583Y-121427161D01*
X115623000Y-121286916D01*
X115623000Y-122160999D01*
X115060998Y-122723000D01*
X114165353Y-122723000D01*
X114045244Y-122673126D01*
X113756025Y-122672874D01*
X113488725Y-122783320D01*
X113377000Y-122894851D01*
X113377000Y-118939002D01*
X115142990Y-117173011D01*
X115142990Y-119573037D01*
X115142990Y-119573037D01*
G37*
X115142990Y-119573037D02*
X114916417Y-119572839D01*
X114575583Y-119713669D01*
X114314586Y-119974211D01*
X114173161Y-120314799D01*
X114172839Y-120683583D01*
X114313669Y-121024417D01*
X114574211Y-121285414D01*
X114914799Y-121426839D01*
X115283583Y-121427161D01*
X115623000Y-121286916D01*
X115623000Y-122160999D01*
X115060998Y-122723000D01*
X114165353Y-122723000D01*
X114045244Y-122673126D01*
X113756025Y-122672874D01*
X113488725Y-122783320D01*
X113377000Y-122894851D01*
X113377000Y-118939002D01*
X115142990Y-117173011D01*
X115142990Y-119573037D01*
G36*
X112223000Y-117060999D02*
X110514867Y-118769131D01*
X110313262Y-118467408D01*
X109894561Y-118187641D01*
X109504233Y-118110000D01*
X109894561Y-118032359D01*
X110313262Y-117752592D01*
X110537726Y-117416658D01*
X110756808Y-117373078D01*
X110944001Y-117248001D01*
X112223000Y-115969002D01*
X112223000Y-117060999D01*
X112223000Y-117060999D01*
G37*
X112223000Y-117060999D02*
X110514867Y-118769131D01*
X110313262Y-118467408D01*
X109894561Y-118187641D01*
X109504233Y-118110000D01*
X109894561Y-118032359D01*
X110313262Y-117752592D01*
X110537726Y-117416658D01*
X110756808Y-117373078D01*
X110944001Y-117248001D01*
X112223000Y-115969002D01*
X112223000Y-117060999D01*
G36*
X114523000Y-115063266D02*
X114523000Y-116160999D01*
X113375262Y-117308736D01*
X113377000Y-117300000D01*
X113377000Y-113917266D01*
X114523000Y-115063266D01*
X114523000Y-115063266D01*
G37*
X114523000Y-115063266D02*
X114523000Y-116160999D01*
X113375262Y-117308736D01*
X113377000Y-117300000D01*
X113377000Y-113917266D01*
X114523000Y-115063266D01*
G36*
X111712989Y-114847009D02*
X110441167Y-116118831D01*
X110313262Y-115927408D01*
X109894561Y-115647641D01*
X109504233Y-115570000D01*
X109894561Y-115492359D01*
X110313262Y-115212592D01*
X110537497Y-114877000D01*
X110699995Y-114877000D01*
X110700000Y-114877001D01*
X110920808Y-114833078D01*
X111108001Y-114708001D01*
X111712989Y-114103012D01*
X111712989Y-114847009D01*
X111712989Y-114847009D01*
G37*
X111712989Y-114847009D02*
X110441167Y-116118831D01*
X110313262Y-115927408D01*
X109894561Y-115647641D01*
X109504233Y-115570000D01*
X109894561Y-115492359D01*
X110313262Y-115212592D01*
X110537497Y-114877000D01*
X110699995Y-114877000D01*
X110700000Y-114877001D01*
X110920808Y-114833078D01*
X111108001Y-114708001D01*
X111712989Y-114103012D01*
X111712989Y-114847009D01*
G36*
X120647490Y-108824560D02*
X120479434Y-108893999D01*
X120274748Y-109098329D01*
X120163835Y-109365435D01*
X120163583Y-109654654D01*
X120266945Y-109904810D01*
X120228570Y-109943119D01*
X120117657Y-110210225D01*
X120117405Y-110499444D01*
X120227851Y-110766744D01*
X120432181Y-110971430D01*
X120699287Y-111082343D01*
X120988506Y-111082595D01*
X121255806Y-110972149D01*
X121295555Y-110932469D01*
X121558795Y-110932469D01*
X121742990Y-111116663D01*
X121742990Y-112073124D01*
X121456025Y-112072874D01*
X121188725Y-112183320D01*
X121100024Y-112271866D01*
X121012350Y-112184039D01*
X120894347Y-112135040D01*
X120894459Y-112007024D01*
X120784013Y-111739724D01*
X120579683Y-111535038D01*
X120312577Y-111424125D01*
X120023358Y-111423873D01*
X119756058Y-111534319D01*
X119551372Y-111738649D01*
X119440459Y-112005755D01*
X119440357Y-112122382D01*
X119436921Y-112127525D01*
X119392998Y-112348333D01*
X119392999Y-112348338D01*
X119392999Y-112355833D01*
X118249155Y-111211989D01*
X118061962Y-111086912D01*
X117841154Y-111042989D01*
X117841149Y-111042990D01*
X116967732Y-111042990D01*
X116993237Y-111038191D01*
X117138567Y-110944673D01*
X117218969Y-110827000D01*
X118069995Y-110827000D01*
X118070000Y-110827001D01*
X118122898Y-110816479D01*
X118122874Y-110843975D01*
X118233320Y-111111275D01*
X118437650Y-111315961D01*
X118704756Y-111426874D01*
X118993975Y-111427126D01*
X119261275Y-111316680D01*
X119465961Y-111112350D01*
X119576874Y-110845244D01*
X119577126Y-110556025D01*
X119551948Y-110495089D01*
X119636064Y-110371981D01*
X119670365Y-110202600D01*
X119670365Y-109237400D01*
X119640636Y-109079403D01*
X119670365Y-108932600D01*
X119670365Y-108829546D01*
X119904756Y-108926874D01*
X120193975Y-108927126D01*
X120461275Y-108816680D01*
X120590806Y-108687374D01*
X120647490Y-108824560D01*
X120647490Y-108824560D01*
G37*
X120647490Y-108824560D02*
X120479434Y-108893999D01*
X120274748Y-109098329D01*
X120163835Y-109365435D01*
X120163583Y-109654654D01*
X120266945Y-109904810D01*
X120228570Y-109943119D01*
X120117657Y-110210225D01*
X120117405Y-110499444D01*
X120227851Y-110766744D01*
X120432181Y-110971430D01*
X120699287Y-111082343D01*
X120988506Y-111082595D01*
X121255806Y-110972149D01*
X121295555Y-110932469D01*
X121558795Y-110932469D01*
X121742990Y-111116663D01*
X121742990Y-112073124D01*
X121456025Y-112072874D01*
X121188725Y-112183320D01*
X121100024Y-112271866D01*
X121012350Y-112184039D01*
X120894347Y-112135040D01*
X120894459Y-112007024D01*
X120784013Y-111739724D01*
X120579683Y-111535038D01*
X120312577Y-111424125D01*
X120023358Y-111423873D01*
X119756058Y-111534319D01*
X119551372Y-111738649D01*
X119440459Y-112005755D01*
X119440357Y-112122382D01*
X119436921Y-112127525D01*
X119392998Y-112348333D01*
X119392999Y-112348338D01*
X119392999Y-112355833D01*
X118249155Y-111211989D01*
X118061962Y-111086912D01*
X117841154Y-111042989D01*
X117841149Y-111042990D01*
X116967732Y-111042990D01*
X116993237Y-111038191D01*
X117138567Y-110944673D01*
X117218969Y-110827000D01*
X118069995Y-110827000D01*
X118070000Y-110827001D01*
X118122898Y-110816479D01*
X118122874Y-110843975D01*
X118233320Y-111111275D01*
X118437650Y-111315961D01*
X118704756Y-111426874D01*
X118993975Y-111427126D01*
X119261275Y-111316680D01*
X119465961Y-111112350D01*
X119576874Y-110845244D01*
X119577126Y-110556025D01*
X119551948Y-110495089D01*
X119636064Y-110371981D01*
X119670365Y-110202600D01*
X119670365Y-109237400D01*
X119640636Y-109079403D01*
X119670365Y-108932600D01*
X119670365Y-108829546D01*
X119904756Y-108926874D01*
X120193975Y-108927126D01*
X120461275Y-108816680D01*
X120590806Y-108687374D01*
X120647490Y-108824560D01*
G36*
X115129635Y-110632600D02*
X115159409Y-110790837D01*
X115252927Y-110936167D01*
X115331749Y-110990023D01*
X115284039Y-111037650D01*
X115173126Y-111304756D01*
X115172874Y-111593975D01*
X115208752Y-111680805D01*
X115191999Y-111691999D01*
X115191997Y-111692002D01*
X115011077Y-111872922D01*
X114956025Y-111872874D01*
X114831406Y-111924365D01*
X114816680Y-111888725D01*
X114612350Y-111684039D01*
X114345244Y-111573126D01*
X114056025Y-111572874D01*
X113788725Y-111683320D01*
X113584039Y-111887650D01*
X113548060Y-111974295D01*
X113545244Y-111973126D01*
X113346999Y-111972953D01*
X113346999Y-111147839D01*
X113617837Y-110877000D01*
X113648757Y-110877000D01*
X113687650Y-110915961D01*
X113954756Y-111026874D01*
X114243975Y-111027126D01*
X114511275Y-110916680D01*
X114715961Y-110712350D01*
X114826874Y-110445244D01*
X114827126Y-110156025D01*
X114716680Y-109888725D01*
X114654937Y-109826874D01*
X114943975Y-109827126D01*
X115129635Y-109750413D01*
X115129635Y-110632600D01*
X115129635Y-110632600D01*
G37*
X115129635Y-110632600D02*
X115159409Y-110790837D01*
X115252927Y-110936167D01*
X115331749Y-110990023D01*
X115284039Y-111037650D01*
X115173126Y-111304756D01*
X115172874Y-111593975D01*
X115208752Y-111680805D01*
X115191999Y-111691999D01*
X115191997Y-111692002D01*
X115011077Y-111872922D01*
X114956025Y-111872874D01*
X114831406Y-111924365D01*
X114816680Y-111888725D01*
X114612350Y-111684039D01*
X114345244Y-111573126D01*
X114056025Y-111572874D01*
X113788725Y-111683320D01*
X113584039Y-111887650D01*
X113548060Y-111974295D01*
X113545244Y-111973126D01*
X113346999Y-111972953D01*
X113346999Y-111147839D01*
X113617837Y-110877000D01*
X113648757Y-110877000D01*
X113687650Y-110915961D01*
X113954756Y-111026874D01*
X114243975Y-111027126D01*
X114511275Y-110916680D01*
X114715961Y-110712350D01*
X114826874Y-110445244D01*
X114827126Y-110156025D01*
X114716680Y-109888725D01*
X114654937Y-109826874D01*
X114943975Y-109827126D01*
X115129635Y-109750413D01*
X115129635Y-110632600D01*
G36*
X115088750Y-107483000D02*
X116073000Y-107483000D01*
X116073000Y-107463000D01*
X116327000Y-107463000D01*
X116327000Y-107483000D01*
X116347000Y-107483000D01*
X116347000Y-107737000D01*
X116327000Y-107737000D01*
X116327000Y-107757000D01*
X116073000Y-107757000D01*
X116073000Y-107737000D01*
X115088750Y-107737000D01*
X114930000Y-107895750D01*
X114930000Y-108218910D01*
X115003981Y-108397516D01*
X114945244Y-108373126D01*
X114656025Y-108372874D01*
X114484517Y-108443740D01*
X114515961Y-108412350D01*
X114626874Y-108145244D01*
X114627126Y-107856025D01*
X114516680Y-107588725D01*
X114312350Y-107384039D01*
X114223247Y-107347040D01*
X114952790Y-107347040D01*
X115088750Y-107483000D01*
X115088750Y-107483000D01*
G37*
X115088750Y-107483000D02*
X116073000Y-107483000D01*
X116073000Y-107463000D01*
X116327000Y-107463000D01*
X116327000Y-107483000D01*
X116347000Y-107483000D01*
X116347000Y-107737000D01*
X116327000Y-107737000D01*
X116327000Y-107757000D01*
X116073000Y-107757000D01*
X116073000Y-107737000D01*
X115088750Y-107737000D01*
X114930000Y-107895750D01*
X114930000Y-108218910D01*
X115003981Y-108397516D01*
X114945244Y-108373126D01*
X114656025Y-108372874D01*
X114484517Y-108443740D01*
X114515961Y-108412350D01*
X114626874Y-108145244D01*
X114627126Y-107856025D01*
X114516680Y-107588725D01*
X114312350Y-107384039D01*
X114223247Y-107347040D01*
X114952790Y-107347040D01*
X115088750Y-107483000D01*
G36*
X123008635Y-94843600D02*
X123038409Y-95001837D01*
X123131927Y-95147167D01*
X123274619Y-95244664D01*
X123444000Y-95278965D01*
X123488689Y-95278965D01*
X123109268Y-95617964D01*
X122855291Y-96145209D01*
X122852642Y-96160974D01*
X122973783Y-96393000D01*
X124333000Y-96393000D01*
X124333000Y-96373000D01*
X124587000Y-96373000D01*
X124587000Y-96393000D01*
X124607000Y-96393000D01*
X124607000Y-96647000D01*
X124587000Y-96647000D01*
X124587000Y-96667000D01*
X124333000Y-96667000D01*
X124333000Y-96647000D01*
X122973783Y-96647000D01*
X122852642Y-96879026D01*
X122855291Y-96894791D01*
X123109268Y-97422036D01*
X123545680Y-97811954D01*
X123757757Y-97886138D01*
X123366738Y-98147408D01*
X123086971Y-98566109D01*
X122988730Y-99060000D01*
X123072161Y-99479437D01*
X122011989Y-100539609D01*
X121886912Y-100726802D01*
X121842989Y-100947610D01*
X121842990Y-100947615D01*
X121842990Y-103791008D01*
X121077421Y-104556577D01*
X120892766Y-104479901D01*
X120603547Y-104479649D01*
X120336247Y-104590095D01*
X120131561Y-104794425D01*
X120020648Y-105061531D01*
X120020396Y-105350750D01*
X120130842Y-105618050D01*
X120133116Y-105620328D01*
X120041377Y-105841258D01*
X120041125Y-106130477D01*
X120151571Y-106397777D01*
X120355901Y-106602463D01*
X120623007Y-106713376D01*
X120912226Y-106713628D01*
X121179526Y-106603182D01*
X121219275Y-106563502D01*
X121782257Y-106563502D01*
X121782262Y-106563503D01*
X122003070Y-106519580D01*
X122190263Y-106394503D01*
X122323000Y-106261766D01*
X122323000Y-106310999D01*
X122010997Y-106623001D01*
X121450004Y-106623001D01*
X121449999Y-106623000D01*
X121229191Y-106666923D01*
X121070538Y-106772930D01*
X121006025Y-106772874D01*
X120738725Y-106883320D01*
X120534039Y-107087650D01*
X120423126Y-107354756D01*
X120422940Y-107567675D01*
X120195244Y-107473126D01*
X119906025Y-107472874D01*
X119870000Y-107487759D01*
X119870000Y-107465750D01*
X119711250Y-107307000D01*
X118727000Y-107307000D01*
X118727000Y-107327000D01*
X118473000Y-107327000D01*
X118473000Y-107307000D01*
X118453000Y-107307000D01*
X118453000Y-107053000D01*
X118473000Y-107053000D01*
X118473000Y-107033000D01*
X118727000Y-107033000D01*
X118727000Y-107053000D01*
X119711250Y-107053000D01*
X119870000Y-106894250D01*
X119870000Y-106571090D01*
X119773327Y-106337701D01*
X119594698Y-106159073D01*
X119361309Y-106062400D01*
X119076946Y-106062400D01*
X119077126Y-105856025D01*
X119009004Y-105691156D01*
X119049614Y-105683078D01*
X119236807Y-105558001D01*
X119403327Y-105391481D01*
X119458378Y-105391529D01*
X119725678Y-105281083D01*
X119930364Y-105076753D01*
X120041277Y-104809647D01*
X120041529Y-104520428D01*
X119931083Y-104253128D01*
X119726753Y-104048442D01*
X119459647Y-103937529D01*
X119170428Y-103937277D01*
X119025279Y-103997251D01*
X118862350Y-103834039D01*
X118595244Y-103723126D01*
X118527024Y-103723067D01*
X118527126Y-103606025D01*
X118416680Y-103338725D01*
X118212350Y-103134039D01*
X117945244Y-103023126D01*
X117656025Y-103022874D01*
X117388725Y-103133320D01*
X117184039Y-103337650D01*
X117154880Y-103407872D01*
X117126539Y-103379482D01*
X116859433Y-103268569D01*
X116570214Y-103268317D01*
X116477000Y-103306832D01*
X116477000Y-101921164D01*
X116433078Y-101700356D01*
X116433078Y-101700355D01*
X116366023Y-101600000D01*
X116308001Y-101513163D01*
X116307998Y-101513161D01*
X116261440Y-101466603D01*
X116415961Y-101312350D01*
X116526874Y-101045244D01*
X116527126Y-100756025D01*
X116471160Y-100620577D01*
X116484736Y-100607001D01*
X117250401Y-100607001D01*
X117509478Y-100555467D01*
X117626912Y-100477000D01*
X118434647Y-100477000D01*
X118554756Y-100526874D01*
X118843975Y-100527126D01*
X119111275Y-100416680D01*
X119151024Y-100377000D01*
X120769158Y-100377000D01*
X120783320Y-100411275D01*
X120987650Y-100615961D01*
X121254756Y-100726874D01*
X121543975Y-100727126D01*
X121811275Y-100616680D01*
X122015961Y-100412350D01*
X122126874Y-100145244D01*
X122127126Y-99856025D01*
X122016680Y-99588725D01*
X121812350Y-99384039D01*
X121545244Y-99273126D01*
X121429943Y-99273026D01*
X121420808Y-99266922D01*
X121200000Y-99222999D01*
X121199995Y-99223000D01*
X119151243Y-99223000D01*
X119112350Y-99184039D01*
X118845244Y-99073126D01*
X118556025Y-99072874D01*
X118434711Y-99123000D01*
X117627068Y-99123000D01*
X117627126Y-99056025D01*
X117516680Y-98788725D01*
X117312350Y-98584039D01*
X117191123Y-98533701D01*
X117177000Y-98519578D01*
X117177000Y-97448008D01*
X117287400Y-97470365D01*
X118252600Y-97470365D01*
X118410837Y-97440591D01*
X118454579Y-97412444D01*
X118465348Y-97434361D01*
X118789851Y-97722108D01*
X119199769Y-97863769D01*
X119373900Y-97715103D01*
X119373900Y-96889540D01*
X119353900Y-96889540D01*
X119353900Y-96635540D01*
X119373900Y-96635540D01*
X119373900Y-96615540D01*
X119627900Y-96615540D01*
X119627900Y-96635540D01*
X119647900Y-96635540D01*
X119647900Y-96889540D01*
X119627900Y-96889540D01*
X119627900Y-97715103D01*
X119678955Y-97758691D01*
X119783320Y-98011275D01*
X119987650Y-98215961D01*
X120254756Y-98326874D01*
X120543975Y-98327126D01*
X120811275Y-98216680D01*
X121015961Y-98012350D01*
X121066299Y-97891123D01*
X121478711Y-97478711D01*
X121516580Y-97422036D01*
X121625466Y-97259077D01*
X121677000Y-97000000D01*
X121677000Y-95680422D01*
X122700422Y-94657000D01*
X123008635Y-94657000D01*
X123008635Y-94843600D01*
X123008635Y-94843600D01*
G37*
X123008635Y-94843600D02*
X123038409Y-95001837D01*
X123131927Y-95147167D01*
X123274619Y-95244664D01*
X123444000Y-95278965D01*
X123488689Y-95278965D01*
X123109268Y-95617964D01*
X122855291Y-96145209D01*
X122852642Y-96160974D01*
X122973783Y-96393000D01*
X124333000Y-96393000D01*
X124333000Y-96373000D01*
X124587000Y-96373000D01*
X124587000Y-96393000D01*
X124607000Y-96393000D01*
X124607000Y-96647000D01*
X124587000Y-96647000D01*
X124587000Y-96667000D01*
X124333000Y-96667000D01*
X124333000Y-96647000D01*
X122973783Y-96647000D01*
X122852642Y-96879026D01*
X122855291Y-96894791D01*
X123109268Y-97422036D01*
X123545680Y-97811954D01*
X123757757Y-97886138D01*
X123366738Y-98147408D01*
X123086971Y-98566109D01*
X122988730Y-99060000D01*
X123072161Y-99479437D01*
X122011989Y-100539609D01*
X121886912Y-100726802D01*
X121842989Y-100947610D01*
X121842990Y-100947615D01*
X121842990Y-103791008D01*
X121077421Y-104556577D01*
X120892766Y-104479901D01*
X120603547Y-104479649D01*
X120336247Y-104590095D01*
X120131561Y-104794425D01*
X120020648Y-105061531D01*
X120020396Y-105350750D01*
X120130842Y-105618050D01*
X120133116Y-105620328D01*
X120041377Y-105841258D01*
X120041125Y-106130477D01*
X120151571Y-106397777D01*
X120355901Y-106602463D01*
X120623007Y-106713376D01*
X120912226Y-106713628D01*
X121179526Y-106603182D01*
X121219275Y-106563502D01*
X121782257Y-106563502D01*
X121782262Y-106563503D01*
X122003070Y-106519580D01*
X122190263Y-106394503D01*
X122323000Y-106261766D01*
X122323000Y-106310999D01*
X122010997Y-106623001D01*
X121450004Y-106623001D01*
X121449999Y-106623000D01*
X121229191Y-106666923D01*
X121070538Y-106772930D01*
X121006025Y-106772874D01*
X120738725Y-106883320D01*
X120534039Y-107087650D01*
X120423126Y-107354756D01*
X120422940Y-107567675D01*
X120195244Y-107473126D01*
X119906025Y-107472874D01*
X119870000Y-107487759D01*
X119870000Y-107465750D01*
X119711250Y-107307000D01*
X118727000Y-107307000D01*
X118727000Y-107327000D01*
X118473000Y-107327000D01*
X118473000Y-107307000D01*
X118453000Y-107307000D01*
X118453000Y-107053000D01*
X118473000Y-107053000D01*
X118473000Y-107033000D01*
X118727000Y-107033000D01*
X118727000Y-107053000D01*
X119711250Y-107053000D01*
X119870000Y-106894250D01*
X119870000Y-106571090D01*
X119773327Y-106337701D01*
X119594698Y-106159073D01*
X119361309Y-106062400D01*
X119076946Y-106062400D01*
X119077126Y-105856025D01*
X119009004Y-105691156D01*
X119049614Y-105683078D01*
X119236807Y-105558001D01*
X119403327Y-105391481D01*
X119458378Y-105391529D01*
X119725678Y-105281083D01*
X119930364Y-105076753D01*
X120041277Y-104809647D01*
X120041529Y-104520428D01*
X119931083Y-104253128D01*
X119726753Y-104048442D01*
X119459647Y-103937529D01*
X119170428Y-103937277D01*
X119025279Y-103997251D01*
X118862350Y-103834039D01*
X118595244Y-103723126D01*
X118527024Y-103723067D01*
X118527126Y-103606025D01*
X118416680Y-103338725D01*
X118212350Y-103134039D01*
X117945244Y-103023126D01*
X117656025Y-103022874D01*
X117388725Y-103133320D01*
X117184039Y-103337650D01*
X117154880Y-103407872D01*
X117126539Y-103379482D01*
X116859433Y-103268569D01*
X116570214Y-103268317D01*
X116477000Y-103306832D01*
X116477000Y-101921164D01*
X116433078Y-101700356D01*
X116433078Y-101700355D01*
X116366023Y-101600000D01*
X116308001Y-101513163D01*
X116307998Y-101513161D01*
X116261440Y-101466603D01*
X116415961Y-101312350D01*
X116526874Y-101045244D01*
X116527126Y-100756025D01*
X116471160Y-100620577D01*
X116484736Y-100607001D01*
X117250401Y-100607001D01*
X117509478Y-100555467D01*
X117626912Y-100477000D01*
X118434647Y-100477000D01*
X118554756Y-100526874D01*
X118843975Y-100527126D01*
X119111275Y-100416680D01*
X119151024Y-100377000D01*
X120769158Y-100377000D01*
X120783320Y-100411275D01*
X120987650Y-100615961D01*
X121254756Y-100726874D01*
X121543975Y-100727126D01*
X121811275Y-100616680D01*
X122015961Y-100412350D01*
X122126874Y-100145244D01*
X122127126Y-99856025D01*
X122016680Y-99588725D01*
X121812350Y-99384039D01*
X121545244Y-99273126D01*
X121429943Y-99273026D01*
X121420808Y-99266922D01*
X121200000Y-99222999D01*
X121199995Y-99223000D01*
X119151243Y-99223000D01*
X119112350Y-99184039D01*
X118845244Y-99073126D01*
X118556025Y-99072874D01*
X118434711Y-99123000D01*
X117627068Y-99123000D01*
X117627126Y-99056025D01*
X117516680Y-98788725D01*
X117312350Y-98584039D01*
X117191123Y-98533701D01*
X117177000Y-98519578D01*
X117177000Y-97448008D01*
X117287400Y-97470365D01*
X118252600Y-97470365D01*
X118410837Y-97440591D01*
X118454579Y-97412444D01*
X118465348Y-97434361D01*
X118789851Y-97722108D01*
X119199769Y-97863769D01*
X119373900Y-97715103D01*
X119373900Y-96889540D01*
X119353900Y-96889540D01*
X119353900Y-96635540D01*
X119373900Y-96635540D01*
X119373900Y-96615540D01*
X119627900Y-96615540D01*
X119627900Y-96635540D01*
X119647900Y-96635540D01*
X119647900Y-96889540D01*
X119627900Y-96889540D01*
X119627900Y-97715103D01*
X119678955Y-97758691D01*
X119783320Y-98011275D01*
X119987650Y-98215961D01*
X120254756Y-98326874D01*
X120543975Y-98327126D01*
X120811275Y-98216680D01*
X121015961Y-98012350D01*
X121066299Y-97891123D01*
X121478711Y-97478711D01*
X121516580Y-97422036D01*
X121625466Y-97259077D01*
X121677000Y-97000000D01*
X121677000Y-95680422D01*
X122700422Y-94657000D01*
X123008635Y-94657000D01*
X123008635Y-94843600D01*
G36*
X111423205Y-101964853D02*
X111422796Y-102433093D01*
X111550847Y-102742999D01*
X110330006Y-102742999D01*
X110330001Y-102742998D01*
X110109842Y-102786792D01*
X110109193Y-102786921D01*
X109922000Y-102911998D01*
X109921998Y-102912001D01*
X109887719Y-102946280D01*
X109504233Y-102870000D01*
X109894561Y-102792359D01*
X110313262Y-102512592D01*
X110537497Y-102177000D01*
X110899995Y-102177000D01*
X110900000Y-102177001D01*
X111120808Y-102133078D01*
X111308001Y-102008001D01*
X111474371Y-101841631D01*
X111423205Y-101964853D01*
X111423205Y-101964853D01*
G37*
X111423205Y-101964853D02*
X111422796Y-102433093D01*
X111550847Y-102742999D01*
X110330006Y-102742999D01*
X110330001Y-102742998D01*
X110109842Y-102786792D01*
X110109193Y-102786921D01*
X109922000Y-102911998D01*
X109921998Y-102912001D01*
X109887719Y-102946280D01*
X109504233Y-102870000D01*
X109894561Y-102792359D01*
X110313262Y-102512592D01*
X110537497Y-102177000D01*
X110899995Y-102177000D01*
X110900000Y-102177001D01*
X111120808Y-102133078D01*
X111308001Y-102008001D01*
X111474371Y-101841631D01*
X111423205Y-101964853D01*
G36*
X110867999Y-100208001D02*
X111055192Y-100333078D01*
X111276000Y-100377001D01*
X111276005Y-100377000D01*
X111314447Y-100377000D01*
X111291999Y-100391999D01*
X110660998Y-101023000D01*
X110537497Y-101023000D01*
X110313262Y-100687408D01*
X109894561Y-100407641D01*
X109504233Y-100330000D01*
X109894561Y-100252359D01*
X110313262Y-99972592D01*
X110441167Y-99781169D01*
X110867999Y-100208001D01*
X110867999Y-100208001D01*
G37*
X110867999Y-100208001D02*
X111055192Y-100333078D01*
X111276000Y-100377001D01*
X111276005Y-100377000D01*
X111314447Y-100377000D01*
X111291999Y-100391999D01*
X110660998Y-101023000D01*
X110537497Y-101023000D01*
X110313262Y-100687408D01*
X109894561Y-100407641D01*
X109504233Y-100330000D01*
X109894561Y-100252359D01*
X110313262Y-99972592D01*
X110441167Y-99781169D01*
X110867999Y-100208001D01*
G36*
X112385834Y-99223000D02*
X111515002Y-99223000D01*
X110944001Y-98651999D01*
X110756808Y-98526922D01*
X110537726Y-98483342D01*
X110313262Y-98147408D01*
X109894561Y-97867641D01*
X109504233Y-97790000D01*
X109894561Y-97712359D01*
X110313262Y-97432592D01*
X110426281Y-97263447D01*
X112385834Y-99223000D01*
X112385834Y-99223000D01*
G37*
X112385834Y-99223000D02*
X111515002Y-99223000D01*
X110944001Y-98651999D01*
X110756808Y-98526922D01*
X110537726Y-98483342D01*
X110313262Y-98147408D01*
X109894561Y-97867641D01*
X109504233Y-97790000D01*
X109894561Y-97712359D01*
X110313262Y-97432592D01*
X110426281Y-97263447D01*
X112385834Y-99223000D01*
G36*
X119500898Y-93235862D02*
X119365900Y-93660540D01*
X119365900Y-94008478D01*
X118928711Y-93571289D01*
X118709077Y-93424534D01*
X118450000Y-93373000D01*
X117100000Y-93373000D01*
X116840923Y-93424534D01*
X116621289Y-93571289D01*
X116021289Y-94171289D01*
X115874534Y-94390923D01*
X115823000Y-94650000D01*
X115823000Y-95382679D01*
X115713833Y-95452927D01*
X115616336Y-95595619D01*
X115582035Y-95765000D01*
X115582035Y-96183486D01*
X115536452Y-96090719D01*
X115211949Y-95802972D01*
X114802031Y-95661311D01*
X114627900Y-95809977D01*
X114627900Y-96635540D01*
X114647900Y-96635540D01*
X114647900Y-96889540D01*
X114627900Y-96889540D01*
X114627900Y-96909540D01*
X114373900Y-96909540D01*
X114373900Y-96889540D01*
X114353900Y-96889540D01*
X114353900Y-96635540D01*
X114373900Y-96635540D01*
X114373900Y-95809977D01*
X114199769Y-95661311D01*
X113789851Y-95802972D01*
X113465348Y-96090719D01*
X113327888Y-96370466D01*
X112977000Y-96019578D01*
X112977000Y-95322642D01*
X113199026Y-95431659D01*
X113373900Y-95305494D01*
X113373900Y-94189540D01*
X113627900Y-94189540D01*
X113627900Y-95305494D01*
X113802774Y-95431659D01*
X114213663Y-95229908D01*
X114500902Y-94889218D01*
X114635900Y-94464540D01*
X114635900Y-94189540D01*
X113627900Y-94189540D01*
X113373900Y-94189540D01*
X113353900Y-94189540D01*
X113353900Y-93935540D01*
X113373900Y-93935540D01*
X113373900Y-93915540D01*
X113627900Y-93915540D01*
X113627900Y-93935540D01*
X114635900Y-93935540D01*
X114635900Y-93660540D01*
X114500902Y-93235862D01*
X114345886Y-93052000D01*
X119655914Y-93052000D01*
X119500898Y-93235862D01*
X119500898Y-93235862D01*
G37*
X119500898Y-93235862D02*
X119365900Y-93660540D01*
X119365900Y-94008478D01*
X118928711Y-93571289D01*
X118709077Y-93424534D01*
X118450000Y-93373000D01*
X117100000Y-93373000D01*
X116840923Y-93424534D01*
X116621289Y-93571289D01*
X116021289Y-94171289D01*
X115874534Y-94390923D01*
X115823000Y-94650000D01*
X115823000Y-95382679D01*
X115713833Y-95452927D01*
X115616336Y-95595619D01*
X115582035Y-95765000D01*
X115582035Y-96183486D01*
X115536452Y-96090719D01*
X115211949Y-95802972D01*
X114802031Y-95661311D01*
X114627900Y-95809977D01*
X114627900Y-96635540D01*
X114647900Y-96635540D01*
X114647900Y-96889540D01*
X114627900Y-96889540D01*
X114627900Y-96909540D01*
X114373900Y-96909540D01*
X114373900Y-96889540D01*
X114353900Y-96889540D01*
X114353900Y-96635540D01*
X114373900Y-96635540D01*
X114373900Y-95809977D01*
X114199769Y-95661311D01*
X113789851Y-95802972D01*
X113465348Y-96090719D01*
X113327888Y-96370466D01*
X112977000Y-96019578D01*
X112977000Y-95322642D01*
X113199026Y-95431659D01*
X113373900Y-95305494D01*
X113373900Y-94189540D01*
X113627900Y-94189540D01*
X113627900Y-95305494D01*
X113802774Y-95431659D01*
X114213663Y-95229908D01*
X114500902Y-94889218D01*
X114635900Y-94464540D01*
X114635900Y-94189540D01*
X113627900Y-94189540D01*
X113373900Y-94189540D01*
X113353900Y-94189540D01*
X113353900Y-93935540D01*
X113373900Y-93935540D01*
X113373900Y-93915540D01*
X113627900Y-93915540D01*
X113627900Y-93935540D01*
X114635900Y-93935540D01*
X114635900Y-93660540D01*
X114500902Y-93235862D01*
X114345886Y-93052000D01*
X119655914Y-93052000D01*
X119500898Y-93235862D01*
G36*
X111623000Y-94680423D02*
X111623000Y-95960999D01*
X111611077Y-95972922D01*
X111556025Y-95972874D01*
X111288725Y-96083320D01*
X111084039Y-96287650D01*
X111083584Y-96288746D01*
X110906837Y-96111999D01*
X110719644Y-95986922D01*
X110543423Y-95951868D01*
X110313262Y-95607408D01*
X109894561Y-95327641D01*
X109504233Y-95250000D01*
X109894561Y-95172359D01*
X110313262Y-94892592D01*
X110470680Y-94657000D01*
X111599578Y-94657000D01*
X111623000Y-94680423D01*
X111623000Y-94680423D01*
G37*
X111623000Y-94680423D02*
X111623000Y-95960999D01*
X111611077Y-95972922D01*
X111556025Y-95972874D01*
X111288725Y-96083320D01*
X111084039Y-96287650D01*
X111083584Y-96288746D01*
X110906837Y-96111999D01*
X110719644Y-95986922D01*
X110543423Y-95951868D01*
X110313262Y-95607408D01*
X109894561Y-95327641D01*
X109504233Y-95250000D01*
X109894561Y-95172359D01*
X110313262Y-94892592D01*
X110470680Y-94657000D01*
X111599578Y-94657000D01*
X111623000Y-94680423D01*
G36*
X120627900Y-93935540D02*
X120647900Y-93935540D01*
X120647900Y-94189540D01*
X120627900Y-94189540D01*
X120627900Y-94209540D01*
X120373900Y-94209540D01*
X120373900Y-94189540D01*
X120353900Y-94189540D01*
X120353900Y-93935540D01*
X120373900Y-93935540D01*
X120373900Y-93915540D01*
X120627900Y-93915540D01*
X120627900Y-93935540D01*
X120627900Y-93935540D01*
G37*
X120627900Y-93935540D02*
X120647900Y-93935540D01*
X120647900Y-94189540D01*
X120627900Y-94189540D01*
X120627900Y-94209540D01*
X120373900Y-94209540D01*
X120373900Y-94189540D01*
X120353900Y-94189540D01*
X120353900Y-93935540D01*
X120373900Y-93935540D01*
X120373900Y-93915540D01*
X120627900Y-93915540D01*
X120627900Y-93935540D01*
G36*
X123008635Y-93116400D02*
X123008635Y-93303000D01*
X122420000Y-93303000D01*
X122160923Y-93354534D01*
X121941289Y-93501289D01*
X121635900Y-93806678D01*
X121635900Y-93660540D01*
X121500902Y-93235862D01*
X121345886Y-93052000D01*
X123021677Y-93052000D01*
X123008635Y-93116400D01*
X123008635Y-93116400D01*
G37*
X123008635Y-93116400D02*
X123008635Y-93303000D01*
X122420000Y-93303000D01*
X122160923Y-93354534D01*
X121941289Y-93501289D01*
X121635900Y-93806678D01*
X121635900Y-93660540D01*
X121500902Y-93235862D01*
X121345886Y-93052000D01*
X123021677Y-93052000D01*
X123008635Y-93116400D01*
M02*
